<svg><defs><font horiz-adv-x="260"><font-face font-family="AvenirNextLTProDemi" font-weight="600" panose-1="2 11 7 4 2 2 2 2 2 4" ascent="756" descent="-244" x-height="480" cap-height="708" bbox="-214 -250 1192 957" underline-thickness="50" underline-position="-50" unicode-range="U+000D-FB02"/><glyph glyph-name="IJ" unicode="IJ" horiz-adv-x="770" d="M78 0v708h126v-708h-126zm620 708v-479q0-34-5-65.5t-19.5-65.5-37-59-61.5-41-90-16q-83 0-136 42t-72 114l116 33q9-35 33-55.5t57-20.5q51 0 70 35.5t19 102.5v475h126z"/><glyph glyph-name="ij" unicode="ij" horiz-adv-x="536" d="M74 0v480h120v-480h-120zm-17 643q0 29 22 50.5t54 21.5q33 0 55.5-20.5t22.5-51.5-22.5-51.5-55.5-20.5q-32 0-54 21.5t-22 50.5zm285-163h120v-509q0-47-7.5-82t-25.5-66-53.5-47-87.5-16q-30 0-54 6l10 102q15-4 33-4 39 0 52 26.5t13 75.5v514zm-17 163q0 29 22 50.5t54 21.5q33 0 55.5-20.5t22.5-51.5-22.5-51.5-55.5-20.5q-32 0-54 21.5t-22 50.5z"/><glyph glyph-name="napostrophe" unicode=""n" horiz-adv-x="622" d="M112 0v480h114v-77h2q17 38 57.5 64.5t91.5 26.5q88 0 132.5-56.5t44.5-137.5v-300h-120v266q0 128-90 128-54 0-83-38.5t-29-91.5v-264h-120zm-135 513l65 195h106l-80-195h-91z"/><glyph glyph-name="fi" unicode="fi" horiz-adv-x="593" d="M410 0v480h120v-480h-120zm-17 643q0 29 22 50.5t54 21.5q33 0 55.5-20.5t22.5-51.5-22.5-51.5-55.5-20.5q-32 0-54 21.5t-22 50.5zm-302-643v384h-91v96h91v71q0 97 45 157t149 60q36 0 61-7l-8-102q-23 7-46 7-81 0-81-108v-78h111v-96h-111v-384h-120z"/><glyph glyph-name="fl" unicode="fl" horiz-adv-x="593" d="M410 0v756h120v-756h-120zm-319 0v384h-91v96h91v71q0 97 45 157t149 60q36 0 61-7l-8-102q-23 7-46 7-81 0-81-108v-78h111v-96h-111v-384h-120z"/><glyph glyph-name=".notdef" horiz-adv-x="512" d="M222 117h56v67h-56v-67zm3 117h46q0 52 6 72 6 19 43 52 37 34 50 60t13 60q0 59-35 95t-89 36q-56 0-92-34t-43-103l50-8q11 95 82 95 31 0 53.5-24.5t22.5-60.5q0-20-9.5-37t-40.5-46q-31-31-46-59-13-25-13-81zm237-184h-412v617h412v-617zm50 668h-512v-718h512v718z"/><glyph glyph-name=".null" horiz-adv-x="500"/><glyph glyph-name=".null" horiz-adv-x="500"/><glyph glyph-name="nonmarkingreturn" horiz-adv-x="333"/><glyph glyph-name="CR" horiz-adv-x="0"/><glyph glyph-name="space" horiz-adv-x="250"/><glyph glyph-name="exclam" unicode="!" horiz-adv-x="340" d="M230 708v-486h-120v486h120zm-140-638q0 32 23.5 55t56.5 23 56.5-22 23.5-54-23.5-55-56.5-23q-32 0-56 22t-24 54z"/><glyph glyph-name="quotedbl" unicode=""" horiz-adv-x="459" d="M90 444v264h102v-264h-102zm177 0v264h102v-264h-102z"/><glyph glyph-name="numbersign" unicode="#" horiz-adv-x="592" d="M107 0l30 209h-90v84h101l18 122h-90v84h101l30 209h88l-30-209h103l30 209h87l-30-209h90v-84h-102l-17-122h90v-84h-100l-31-209h-87l30 209h-104l-30-209h-87zm249 415h-103l-17-122h103z"/><glyph glyph-name="dollar" unicode="$" horiz-adv-x="610" d="M330 786v-66q128-2 208-71l-81-84q-48 53-127 53v-202q46-14 77.5-28.5t66-39 52-61.5 17.5-85q0-99-62-155t-151-58v-72h-54v72q-144 5-235 93l88 84q27-32 68-52.5t79-21.5v222q-102 28-155.5 73t-53.5 133q0 85 62 138.5t147 59.5v68h54zm-54-356v188q-38-4-63.5-27.5t-25.5-64.5q0-70 89-96zm54-132v-206q42 2 67.5 30.5t25.5 72.5q0 41-24 64.5t-69 38.5z"/><glyph glyph-name="percent" unicode="%" horiz-adv-x="930" d="M518 174q0 77 54.5 131.5t131.5 54.5 131.5-54.5 54.5-131.5-54.5-131.5-131.5-54.5-131.5 54.5-54.5 131.5zm276 0q0 38-26 64t-64 26-64-26-26-64 26-64 64-26 64 26 26 64zm-754 360q0 77 54.5 131.5t131.5 54.5 131.5-54.5 54.5-131.5-54.5-131.5-131.5-54.5-131.5 54.5-54.5 131.5zm276 0q0 38-26 64t-64 26-64-26-26-64 26-64 64-26 64 26 26 64zm-101-528l416 734 83-38-416-734z"/><glyph glyph-name="ampersand" unicode="&" horiz-adv-x="741" d="M712 374l-142-205 165-169h-160l-78 81q-81-95-212-95-99 0-168 54.5t-69 151.5q0 135 154 201-76 78-76 159 0 85 59.5 129.5t140.5 44.5q82 0 139-44.5t57-127.5q0-121-145-188l116-121 82 129h137zm-384 255q-35 0-59-22.5t-24-56.5q0-56 63-113 102 43 102 113 0 33-23.5 56t-58.5 23zm93-470l-151 157q-98-36-98-119 0-49 36.5-80t80.5-31q79 0 132 73z"/><glyph glyph-name="quotesingle" unicode="'" horiz-adv-x="282" d="M90 444v264h102v-264h-102z"/><glyph glyph-name="parenleft" unicode="(" horiz-adv-x="330" d="M36 288q0-242 146-444l84 55q-127 176-127 389t127 389l-84 55q-146-202-146-444z"/><glyph glyph-name="parenright" unicode=")" horiz-adv-x="330" d="M294 288q0-242-146-444l-84 55q127 176 127 389t-127 389l84 55q146-202 146-444z"/><glyph glyph-name="asterisk" unicode="*" horiz-adv-x="463" d="M274 708v-142l135 44 26-80-136-44 86-117-69-50-86 118-84-115-67 51 86 113-137 47 26 80 136-47v142h84z"/><glyph glyph-name="plus" unicode="+" horiz-adv-x="666" d="M62 354h220v220h102v-220h220v-102h-220v-220h-102v220h-220v102z"/><glyph glyph-name="comma" unicode="," d="M24-126l70 264h116l-85-264h-101z"/><glyph glyph-name="hyphen" unicode="-" horiz-adv-x="320" d="M280 297v-102h-240v102h240z"/><glyph glyph-name="period" unicode="." d="M50 70q0 32 23.5 55t56.5 23 56.5-22 23.5-54-23.5-55-56.5-23q-32 0-56 22t-24 54z"/><glyph glyph-name="slash" unicode="/" horiz-adv-x="389" d="M386 726l-312-774-83 30 312 776z"/><glyph glyph-name="zero" unicode="0" horiz-adv-x="610" d="M555 354q0-174-65-273t-184-99q-120 0-185.5 99t-65.5 273 65.5 273 185.5 99q119 0 184-99t65-273zm-123 0q0 44-5 85.5t-17.5 86.5-39 72.5-64.5 27.5-65-27.5-40-72.5-18-86.5-5-85.5q0-43 5-85t18-86.5 40-71.5 65-27 64.5 27 39 72 17.5 86 5 85z"/><glyph glyph-name="one" unicode="1" horiz-adv-x="610" d="M279 0v562l-140-115-70 83 221 178h109v-708h-120z"/><glyph glyph-name="two" unicode="2" horiz-adv-x="610" d="M69 0v110l273 268q72 70 72 139 0 49-32 79t-81 30q-50 0-81.5-33.5t-38.5-87.5l-117 18q11 89 77 146t162 57q98 0 167-55t69-152q0-63-29.5-112.5t-84.5-101.5l-204-195h319v-110h-471z"/><glyph glyph-name="three" unicode="3" horiz-adv-x="610" d="M212 321v96h32q151 0 151 107 0 46-32.5 74t-79.5 28q-43 0-72.5-25t-40.5-66l-113 29q19 72 83 117t148 45q98 0 163-51t65-143q0-57-35-101.5t-92-58.5v-2q65-13 105.5-59t40.5-111q0-103-74-160.5t-173-57.5q-94 0-162 41t-95 126l112 35q13-44 50-72t91-28q53 0 91.5 29t38.5 88q0 43-28.5 71.5t-65 38.5-78.5 10h-30z"/><glyph glyph-name="four" unicode="4" horiz-adv-x="610" d="M348 0v147h-327v106l301 455h144v-458h99v-103h-99v-147h-118zm0 250v317h-2l-201-317h203z"/><glyph glyph-name="five" unicode="5" horiz-adv-x="610" d="M505 708v-108h-289l-7-153q33 9 83 9 107 0 175.5-59.5t68.5-164.5q0-114-74-182t-184-68q-87 0-149 41t-90 114l109 40q15-42 50.5-67.5t82.5-25.5q56 0 94 36.5t38 98.5q0 75-45.5 108t-112.5 33q-89 0-165-39l12 387h403z"/><glyph glyph-name="six" unicode="6" horiz-adv-x="610" d="M295 708h146l-181-262 1-1q29 12 75 12 94 0 160-65.5t66-161.5q0-111-73.5-179.5t-184.5-68.5-185 70-74 173q0 57 17.5 102.5t55.5 106.5zm-128-486q0-57 37.5-97.5t98.5-40.5 98.5 38.5 37.5 101.5q0 60-37 99t-97 39q-61 0-99.5-39t-38.5-101z"/><glyph glyph-name="seven" unicode="7" horiz-adv-x="610" d="M51 600v108h481v-110l-283-598h-141l298 600h-355z"/><glyph glyph-name="eight" unicode="8" horiz-adv-x="610" d="M305 726q96 0 160-52t64-140q0-60-30-102t-80-58v-2q57-14 95-61t38-111q0-102-70.5-160t-176.5-58-176.5 58-70.5 160q0 65 38.5 111.5t94.5 60.5v2q-110 40-110 155 0 88 64.5 142.5t159.5 54.5zm0-99q-45 0-73.5-27.5t-28.5-72.5q0-44 28-73.5t74-29.5q43 0 73 30t30 73q0 44-30.5 72t-72.5 28zm0-305q-52 0-87.5-34t-35.5-87q0-54 34.5-86t88.5-32q53 0 87.5 32t34.5 86q0 52-35.5 86.5t-86.5 34.5z"/><glyph glyph-name="nine" unicode="9" horiz-adv-x="610" d="M314 0h-146l182 263-1 1q-29-13-76-13-94 0-160 65.5t-66 161.5q0 111 73.5 179.5t184.5 68.5 185-70 74-173q0-57-17.5-102.5t-55.5-106.5zm128 486q0 58-38 99t-98 41q-61 0-98.5-39.5t-37.5-102.5q0-60 37-99t97-39q61 0 99.5 39t38.5 101z"/><glyph glyph-name="colon" unicode=":" horiz-adv-x="300" d="M70 70q0 32 23.5 55t56.5 23 56.5-22 23.5-54-23.5-55-56.5-23q-32 0-56 22t-24 54zm0 338q0 32 23.5 55t56.5 23 56.5-22 23.5-54-23.5-55-56.5-23q-32 0-56 22t-24 54z"/><glyph glyph-name="semicolon" unicode=";" horiz-adv-x="300" d="M40-126l70 264h122l-85-264h-107zm30 535q0 32 23.5 55t56.5 23 56.5-22 23.5-54-23.5-55-56.5-23q-32 0-56 22t-24 54z"/><glyph glyph-name="less" unicode="<" horiz-adv-x="666" d="M586 42l-506 225v72l506 225v-110l-338-151 338-151v-110z"/><glyph glyph-name="equal" unicode="=" horiz-adv-x="666" d="M80 444h506v-102h-506v102zm0-180h506v-102h-506v102z"/><glyph glyph-name="greater" unicode=">" horiz-adv-x="666" d="M80 564l506-225v-72l-506-225v110l338 151-338 151v110z"/><glyph glyph-name="question" unicode="?" horiz-adv-x="519" d="M328 209h-118v38q0 48 14 79t52 67l45 43q46 42 46 89 0 40-25.5 66t-68.5 26q-45 0-72.5-30.5t-29.5-73.5l-123 11q11 94 75 148t158 54q91 0 152-51t61-142q0-58-23-94t-77-83q-41-36-53.5-57.5t-12.5-63.5v-26zm-138-139q0 32 23.5 55t56.5 23 56.5-22 23.5-54-23.5-55-56.5-23q-32 0-56 22t-24 54z"/><glyph glyph-name="at" unicode="@" horiz-adv-x="800" d="M412 467q-44 0-71-46.5t-27-100.5q0-30 14.5-53.5t49.5-23.5q50 0 75 43.5t25 92.5q0 88-66 88zm258-304l55-60q-114-121-311-121-171 0-276.5 103.5t-105.5 267.5q0 159 111.5 266t270.5 107q70 0 132.5-20.5t112.5-59 79.5-101 29.5-140.5q0-115-58-180t-140-65q-39 0-63.5 19t-24.5 48h-5q-17-28-49-47.5t-73-19.5q-66 0-104 44.5t-38 117.5q0 89 55.5 158t140.5 69q37 0 63.5-15.5t34.5-39.5h1l8 40h89l-39-189q-9-54-9-63 0-40 32-40 39 0 64.5 42.5t25.5 112.5q0 118-73.5 183t-193.5 65q-125 0-204-83.5t-79-209.5q0-131 82-209t212-78q143 0 247 98z"/><glyph glyph-name="A" unicode="A" horiz-adv-x="706" d="M-8 0l308 708h109l305-708h-144l-66 162h-307l-64-162h-141zm248 270h220l-109 288z"/><glyph glyph-name="B" unicode="B" horiz-adv-x="647" d="M78 0v708h276q90 0 153.5-44t63.5-134q0-58-33-98t-90-57v-2q69-9 111-53t42-114q0-55-22.5-96.5t-61.5-64.5-85-34-99-11h-255zm126 604v-184h112q63 0 96 25t33 71q0 47-34 67.5t-106 20.5h-101zm0-292v-206h113q158 0 158 106 0 54-37 77t-116 23h-118z"/><glyph glyph-name="C" unicode="C" horiz-adv-x="696" d="M685 618l-96-76q-26 36-70.5 54.5t-90.5 18.5q-108 0-176.5-74t-68.5-185q0-116 65.5-188.5t174.5-72.5q112 0 172 82l101-71q-99-124-274-124-166 0-272 104.5t-106 269.5q0 167 108.5 268.5t275.5 101.5q74 0 145.5-27.5t111.5-80.5z"/><glyph glyph-name="D" unicode="D" horiz-adv-x="764" d="M78 0v708h251q74 0 140-18.5t124-58 92.5-111 34.5-166.5q0-89-34.5-159t-92-111.5-125-62.5-139.5-21h-251zm126 110h105q41 0 78.5 7t74.5 24.5 63.5 44 43 70 16.5 98.5q0 246-276 246h-105v-490z"/><glyph glyph-name="E" unicode="E" horiz-adv-x="610" d="M78 0v708h469v-110h-343v-180h325v-106h-325v-200h361v-112h-487z"/><glyph glyph-name="F" unicode="F" horiz-adv-x="573" d="M78 0v708h457v-110h-331v-194h312v-106h-312v-298h-126z"/><glyph glyph-name="G" unicode="G" horiz-adv-x="773" d="M698 404v-367q-115-55-267-55-171 0-279 104t-108 270q0 167 108.5 268.5t275.5 101.5q82 0 153.5-24t115.5-65l-87-94q-28 31-77 51.5t-104 20.5q-110 0-178-74t-68-185q0-115 68.5-188t183.5-73q81 0 141 25v180h-149v104h271z"/><glyph glyph-name="H" unicode="H" horiz-adv-x="739" d="M78 0v708h126v-286h331v286h126v-708h-126v314h-331v-314h-126z"/><glyph glyph-name="I" unicode="I" horiz-adv-x="282" d="M78 0v708h126v-708h-126z"/><glyph glyph-name="J" unicode="J" horiz-adv-x="498" d="M426 708v-479q0-34-5-65.5t-19.5-65.5-37-59-61.5-41-90-16q-83 0-136 42t-72 114l116 33q9-35 33-55.5t57-20.5q51 0 70 35.5t19 102.5v475h126z"/><glyph glyph-name="K" unicode="K" horiz-adv-x="689" d="M78 0v708h126v-306h3l296 306h170l-331-327 353-381h-177l-311 355h-3v-355h-126z"/><glyph glyph-name="L" unicode="L" horiz-adv-x="511" d="M78 0v708h126v-596h301v-112h-427z"/><glyph glyph-name="M" unicode="M" horiz-adv-x="920" d="M78 0v708h197l184-503h3l182 503h198v-708h-125v569h-2l-215-569h-88l-212 569h-2v-569h-120z"/><glyph glyph-name="N" unicode="N" horiz-adv-x="780" d="M78 0v708h167l329-530h2v530h126v-708h-160l-336 547h-2v-547h-126z"/><glyph glyph-name="O" unicode="O" horiz-adv-x="849" d="M44 356q0 168 106.5 269t272.5 101q168 0 275-101t107-269q0-165-107.5-269.5t-274.5-104.5q-165 0-272 104.5t-107 269.5zm137 0q0-114 68-187.5t175-73.5q108 0 176 73.5t68 187.5q0 111-67.5 185t-176.5 74q-108 0-175.5-74t-67.5-185z"/><glyph glyph-name="P" unicode="P" horiz-adv-x="610" d="M78 0v708h231q267 0 267-205 0-110-76-160t-199-50h-97v-293h-126zm126 399h88q157 0 157 104 0 57-41.5 78t-111.5 21h-92v-203z"/><glyph glyph-name="Q" unicode="Q" horiz-adv-x="852" d="M841 102v-102h-427q-172 0-274.5 96.5t-102.5 266.5q0 160 107.5 261.5t271.5 101.5 270-101.5 106-261.5q0-88-36-154.5t-90-104.5v-2h175zm-425 511q-103 0-172-71t-69-179q0-113 66-183t173-70q106 0 173.5 70t67.5 183q0 109-66.5 179.5t-172.5 70.5z"/><glyph glyph-name="R" unicode="R" horiz-adv-x="629" d="M78 0v708h246q71 0 127.5-18.5t95-66 38.5-118.5q0-75-43-124.5t-119-66.5l189-314h-152l-164 300h-92v-300h-126zm126 403h103q152 0 152 103 0 52-41 74t-100 22h-114v-199z"/><glyph glyph-name="S" unicode="S" horiz-adv-x="574" d="M521 650l-82-90q-20 27-56.5 44t-73.5 17q-49 0-87-24.5t-38-72.5q0-24 8.5-40.5t30-29.5 40.5-20 56-19q35-11 57.5-19t54-25.5 50-37.5 32-52.5 13.5-72.5q0-109-73.5-167.5t-184.5-58.5q-71 0-136.5 26.5t-106.5 74.5l90 84q26-35 69-56.5t86-21.5q51 0 89.5 26t38.5 79q0 18-5 32.5t-18.5 26.5-23.5 19.5-35.5 17-36.5 13.5-44 14q-38 12-65 25t-55.5 35.5-43.5 58-15 82.5q0 101 76.5 154.5t182.5 53.5q56 0 111.5-19.5t94.5-56.5z"/><glyph glyph-name="T" unicode="T" horiz-adv-x="568" d="M221 0v598h-217v110h560v-110h-217v-598h-126z"/><glyph glyph-name="U" unicode="U" horiz-adv-x="714" d="M642 708v-448q0-126-80.5-202t-204.5-76-204.5 76-80.5 202v448h126v-443q0-71 38-120.5t121-49.5 121 49.5 38 120.5v443h126z"/><glyph glyph-name="V" unicode="V" horiz-adv-x="653" d="M270 0l-280 708h141l195-545h4l197 545h136l-284-708h-109z"/><glyph glyph-name="W" unicode="W" horiz-adv-x="1004" d="M213 0l-207 708h138l137-520h2l156 520h130l153-520h2l140 520h134l-207-708h-122l-166 531h-2l-166-531h-122z"/><glyph glyph-name="X" unicode="X" horiz-adv-x="658" d="M4 0l245 378-220 330h152l146-242 144 242h145l-216-333 254-375h-159l-173 278-166-278h-152z"/><glyph glyph-name="Y" unicode="Y" horiz-adv-x="622" d="M249 0v307l-266 401h154l178-298 180 298h146l-266-401v-307h-126z"/><glyph glyph-name="Z" unicode="Z" horiz-adv-x="611" d="M35 0v114l385 484h-379v110h529v-114l-387-482h393v-112h-541z"/><glyph glyph-name="bracketleft" unicode="[" horiz-adv-x="330" d="M252 732v-78h-90v-732h90v-78h-192v888h192z"/><glyph glyph-name="backslash" unicode="\" horiz-adv-x="389" d="M3 726l83 32 312-776-83-30z"/><glyph glyph-name="bracketright" unicode="]" horiz-adv-x="330" d="M78-156v78h90v732h-90v78h192v-888h-192z"/><glyph glyph-name="asciicircum" unicode="^" horiz-adv-x="666" d="M187 343h-118l223 365h82l223-365h-118l-147 239z"/><glyph glyph-name="underscore" unicode="_" horiz-adv-x="500" d="M500-75v-75h-500v75h500z"/><glyph glyph-name="grave" unicode="`" d="M78 708l99-144h-94l-141 144h136z"/><glyph glyph-name="a" unicode="a" horiz-adv-x="550" d="M370 0v61h-3q-18-32-58.5-52.5t-90.5-20.5q-69 0-124.5 36.5t-55.5 112.5q0 41 20.5 71.5t51.5 47.5 77.5 27.5 88 13.5 92.5 3v12q0 42-31 65t-79 23q-76 0-131-55l-62 73q82 76 203 76 62 0 105.5-17.5t66.5-48 32.5-64 9.5-72.5v-292h-112zm-2 202v17h-27q-183 0-183-80 0-32 24.5-46t59.5-14q61 0 93.5 32.5t32.5 90.5z"/><glyph glyph-name="b" unicode="b" horiz-adv-x="635" d="M74 756h120v-337h3q60 75 161 75 102 0 167.5-72t65.5-180-64.5-182-171.5-74q-51 0-96 22.5t-69 63.5h-2v-72h-114v756zm395-514q0 62-36.5 108t-101.5 46q-63 0-102-48t-39-108 39-107 102-47q65 0 101.5 47t36.5 109z"/><glyph glyph-name="c" unicode="c" horiz-adv-x="488" d="M482 419l-82-72q-14 20-42 33.5t-57 13.5q-62 0-97-46.5t-35-107.5q0-62 36-108t100-46q66 0 101 43l75-76q-62-67-177-67-110 0-185 69t-75 185q0 114 74 184t183 70q53 0 103-20t78-55z"/><glyph glyph-name="d" unicode="d" horiz-adv-x="634" d="M560 756v-756h-114v72h-2q-24-41-69-63.5t-96-22.5q-107 0-171.5 74t-64.5 182 65.5 180 167.5 72q101 0 161-75h3v337h120zm-395-514q0-62 36.5-109t101.5-47q63 0 102 47t39 107-39 108-102 48q-65 0-101.5-46t-36.5-108z"/><glyph glyph-name="e" unicode="e" horiz-adv-x="574" d="M164 288h246q0 50-29 83t-84 33q-53 0-91-33t-42-83zm366-54q0-21-1-32h-365q4-50 44-84t93-34q83 0 127 62l80-64q-71-96-206-96-113 0-185.5 68t-72.5 183 72 186 182 71q104 0 168-67t64-193z"/><glyph glyph-name="f" unicode="f" horiz-adv-x="324" d="M91 0v384h-91v96h91v71q0 97 45 157t149 60q36 0 61-7l-8-102q-23 7-46 7-81 0-81-108v-78h111v-96h-111v-384h-120z"/><glyph glyph-name="g" unicode="g" horiz-adv-x="632" d="M446 480h114v-437q0-134-67.5-208.5t-203.5-74.5q-61 0-127 21t-111 58l69 93q71-68 168-68 152 0 152 165v35h-2q-54-72-157-72-105 0-171 72.5t-66 177.5q0 107 64.5 179.5t170.5 72.5q113 0 165-86h2v72zm-142-84q-63 0-100.5-43.5t-37.5-109.5q0-61 37.5-106.5t99.5-45.5q64 0 103.5 44.5t39.5 107.5q0 64-39 108.5t-103 44.5z"/><glyph glyph-name="h" unicode="h" horiz-adv-x="584" d="M339 494q88 0 132.5-56.5t44.5-137.5v-300h-120v264q0 127-89 127-54 0-83.5-38.5t-29.5-90.5v-262h-120v756h120v-343h2q16 33 54.5 57t88.5 24z"/><glyph glyph-name="i" unicode="i" horiz-adv-x="268" d="M74 0v480h120v-480h-120zm-17 643q0 29 22 50.5t54 21.5q33 0 55.5-20.5t22.5-51.5-22.5-51.5-55.5-20.5q-32 0-54 21.5t-22 50.5z"/><glyph glyph-name="j" unicode="j" horiz-adv-x="268" d="M74 480h120v-509q0-47-7.5-82t-25.5-66-53.5-47-87.5-16q-30 0-54 6l10 102q15-4 33-4 39 0 52 26.5t13 75.5v514zm-17 163q0 29 22 50.5t54 21.5q33 0 55.5-20.5t22.5-51.5-22.5-51.5-55.5-20.5q-32 0-54 21.5t-22 50.5z"/><glyph glyph-name="k" unicode="k" horiz-adv-x="543" d="M74 0v756h120v-478h3l182 202h154l-208-217 221-263h-159l-190 246h-3v-246h-120z"/><glyph glyph-name="l" unicode="l" horiz-adv-x="268" d="M74 0v756h120v-756h-120z"/><glyph glyph-name="m" unicode="m" horiz-adv-x="890" d="M645 494q88 0 132.5-56.5t44.5-137.5v-300h-120v266q0 128-90 128-52 0-79-39.5t-27-92.5v-262h-120v290q0 47-22.5 75.5t-66.5 28.5q-51 0-78-38.5t-27-91.5v-264h-120v480h114v-77h2q17 39 56 65t93 26q105 0 150-91 50 91 158 91z"/><glyph glyph-name="n" unicode="n" horiz-adv-x="582" d="M72 0v480h114v-77h2q17 38 57.5 64.5t91.5 26.5q88 0 132.5-56.5t44.5-137.5v-300h-120v266q0 128-90 128-54 0-83-38.5t-29-91.5v-264h-120z"/><glyph glyph-name="o" unicode="o" horiz-adv-x="610" d="M44 242q0 111 75 181.5t186 70.5 186-70.5 75-181.5q0-112-75.5-184t-185.5-72-185.5 72-75.5 184zm122 0q0-62 36-109t103-47 103 47 36 109-36 108-103 46-103-46-36-108z"/><glyph glyph-name="p" unicode="p" horiz-adv-x="633" d="M72 480h115v-67h3q21 33 63.5 57t102.5 24q102 0 167.5-72t65.5-180-64.5-182-171.5-74q-50 0-93 21t-66 57h-2v-304h-120v720zm395-238q0 62-36.5 108t-101.5 46q-63 0-102-48t-39-108 39-107 102-47q65 0 101.5 47t36.5 109z"/><glyph glyph-name="q" unicode="q" horiz-adv-x="632" d="M560 480v-720h-120v304h-2q-23-36-66-57t-93-21q-107 0-171.5 74t-64.5 182 65.5 180 167.5 72q60 0 102.5-24t63.5-57h3v67h115zm-395-238q0-62 36.5-109t101.5-47q63 0 102 47t39 107-39 108-102 48q-65 0-101.5-46t-36.5-108z"/><glyph glyph-name="r" unicode="r" horiz-adv-x="364" d="M72 0v480h115v-80h2q20 43 57 68.5t83 25.5q17 0 29-3v-110q-20 5-37 5-31 0-55-10t-37.5-25-22-33.5-11.5-33.5-3-27v-257h-120z"/><glyph glyph-name="s" unicode="s" horiz-adv-x="444" d="M413 421l-78-69q-17 22-45 37t-60 15-54.5-13-22.5-39q0-25 23-37t81-26q31-7 55-16.5t48.5-25.5 38-42 13.5-59q0-82-56.5-121t-143.5-39q-57 0-110 21t-87 58l79 74q46-60 123-60 31 0 54 14t23 43q0 28-24.5 41.5t-85.5 27.5q-65 16-103.5 45.5t-38.5 90.5q0 75 56 114t135 39q54 0 103-19t77-54z"/><glyph glyph-name="t" unicode="t" horiz-adv-x="340" d="M87 384h-84v96h84v139h118v-139h120v-96h-120v-223q0-36 13-55t50-19q31 0 51 10l4-94q-34-13-80-13-88 0-122 45.5t-34 124.5v224z"/><glyph glyph-name="u" unicode="u" horiz-adv-x="582" d="M510 480v-480h-114v77h-2q-17-38-57.5-64.5t-91.5-26.5q-88 0-132.5 56.5t-44.5 137.5v300h120v-266q0-128 90-128 54 0 83 38.5t29 91.5v264h120z"/><glyph glyph-name="v" unicode="v" horiz-adv-x="513" d="M194 0l-194 480h131l126-350h2l127 350h127l-191-480h-128z"/><glyph glyph-name="w" unicode="w" horiz-adv-x="804" d="M171 0l-167 480h130l100-344h2l103 344h128l104-344h2l102 344h125l-166-480h-122l-109 336h-2l-108-336h-122z"/><glyph glyph-name="x" unicode="x" horiz-adv-x="537" d="M-1 0l195 255-173 225h144l104-149 107 149h138l-172-225 196-255h-146l-125 175-126-175h-142z"/><glyph glyph-name="y" unicode="y" horiz-adv-x="513" d="M206 0l-206 480h133l134-349h2l119 349h125l-227-583q-28-71-67.5-104t-114.5-33q-33 0-62 7l10 104q22-7 45-7 36 0 52 16.5t33 58.5z"/><glyph glyph-name="z" unicode="z" horiz-adv-x="482" d="M34 0v106l259 278h-247v96h390v-106l-260-276h272v-98h-414z"/><glyph glyph-name="braceleft" unicode="{" horiz-adv-x="330" d="M10 244v88q27 0 48 16t21 54v198q0 64 37 98t91 34h73v-84h-55q-44 0-44-60v-188q0-52-32.5-79.5t-65.5-31.5v-2q15-1 29.5-6.5t31-17.5 27-36 10.5-57v-182q0-60 44-60h55v-84h-73q-54 0-91 34t-37 98v191q0 42-21 59.5t-48 17.5z"/><glyph glyph-name="bar" unicode="|" horiz-adv-x="222" d="M60 750h102v-1000h-102v1000z"/><glyph glyph-name="braceright" unicode="}" horiz-adv-x="330" d="M320 244v88q-27 0-48 16t-21 54v198q0 64-37 98t-91 34h-73v-84h55q44 0 44-60v-188q0-52 32.5-79.5t65.5-31.5v-2q-15-1-29.5-6.5t-31-17.5-27-36-10.5-57v-182q0-60-44-60h-55v-84h73q54 0 91 34t37 98v191q0 42 21 59.5t48 17.5z"/><glyph glyph-name="asciitilde" unicode="~" horiz-adv-x="666" d="M345 354q40-25 55.5-31t38.5-6q45 0 78 63l77-65q-62-102-153-102-58 0-121 40-58 36-93 36-44 0-78-63l-77 65q62 103 153 103 59 0 120-40z"/><glyph glyph-name="uni00A0" horiz-adv-x="250"/><glyph glyph-name="exclamdown" unicode="¡" horiz-adv-x="340" d="M230-214h-120v486h120v-486zm-140 638q0 32 24 54t56 22q33 0 56.5-23t23.5-55-23.5-54-56.5-22-56.5 23-23.5 55z"/><glyph glyph-name="cent" unicode="¢" horiz-adv-x="610" d="M354 559v-67q115-4 170-69l-77-78q-40 42-93 45v-300q56 0 97 46l73-79q-60-65-170-69v-72h-54v72q-101 9-161.5 79.5t-60.5 173.5q0 104 59.5 170.5t162.5 80.5v67h54zm-54-469v299q-53-11-80.5-51.5t-27.5-97.5q0-54 28-95.5t80-54.5z"/><glyph glyph-name="sterling" unicode="£" horiz-adv-x="610" d="M66 0v107h98v208h-98v84h98v83q0 32 7.5 64t25.5 65 45 58 70 41 96 16q107 0 176-60l-71-83q-40 43-105 43t-93.5-45.5-28.5-103.5v-78h164v-84h-164v-208h265v-107h-485z"/><glyph glyph-name="currency" unicode="¤" horiz-adv-x="920" d="M687 462q45-66 45-153 0-93-48-158l93-93-70-70q-32 31-96 95-65-43-150-43-81 0-151 45-32-33-98-97l-22 22-25.5 26-22.5 22q16 16 47.5 48t47.5 48q-45 62-45 155 0 87 43 150l-93 93q24 23 71 70 15-16 47-47t47-46q68 46 154 46 88 0 153-45l29 29 34 34.5 29 28.5q24-23 71-70zm-226-3q-64 0-104.5-44t-40.5-106q0-64 40.5-108t104.5-44q65 0 105 44t40 108q0 62-40.5 106t-104.5 44z"/><glyph glyph-name="yen" unicode="¥" horiz-adv-x="610" d="M245 0v155h-176v78h176v77h-176v78h145l-198 320h140l155-288 149 288h134l-193-320h140v-78h-176v-77h176v-78h-176v-155h-120z"/><glyph glyph-name="brokenbar" unicode="¦" horiz-adv-x="222" d="M60 675h102v-350h-102v350zm0-500h102v-350h-102v350z"/><glyph glyph-name="section" unicode="§" horiz-adv-x="610" d="M529 640l-82-73q-20 29-51.5 46t-63.5 17q-34 0-62-17t-28-49q0-34 31-56t99-50q37-15 62-29t52.5-35 41.5-50 14-64q0-40-23-75t-58-53q52-39 52-116 0-85-65.5-132.5t-152.5-47.5q-67 0-129.5 29t-97.5 84l99 59q17-34 52.5-52t74.5-18q35 0 65 18.5t30 52.5q0 44-49 71-21 12-101 43-34 13-56 24.5t-47 30.5-37.5 45-12.5 59q0 95 96 145-61 39-61 114 0 78 63 121.5t145 43.5q60 0 113.5-22t86.5-64zm-248-401l104-43q43 21 43 68 0 18-6.5 32t-20.5 25-25 17.5-29 15.5l-89 40q-58-24-58-70 0-23 14-40.5t27.5-25 39.5-19.5z"/><glyph glyph-name="dieresis" unicode="¨" d="M-40 644q0 28 20.5 49t50.5 21q31 0 52-20t21-50-21-50-52-20q-30 0-50.5 21t-20.5 49zm196 0q0 28 20.5 49t50.5 21q31 0 52-20t21-50-21-50-52-20q-30 0-50.5 21t-20.5 49z"/><glyph glyph-name="copyright" unicode="©" horiz-adv-x="800" d="M577 506l-63-63q-15 18-41 30t-55 12q-58 0-91-39t-33-93q0-55 35-95t96-40q60 0 93 38l58-68q-54-60-158-60-99 0-164.5 59.5t-65.5 163.5q0 102 66 163t164 61q48 0 91-18.5t68-50.5zm-557-153q0 157 111.5 267t269.5 110q157 0 268-110t111-267q0-156-111-265.5t-268-109.5q-158 0-269.5 109.5t-111.5 265.5zm60 0q0-132 94-225.5t227-93.5q132 0 225.5 93.5t93.5 225.5q0 133-93.5 227t-225.5 94q-133 0-227-94t-94-227z"/><glyph glyph-name="ordfeminine" unicode="ª" horiz-adv-x="380" d="M244 431v30h-1q-22-37-89-37-43 0-74 23t-31 63q0 33 16.5 54.5t48 30.5 59 12 65.5 3v6q0 42-60 42-41 0-69-31l-44 52q44 44 120 44 132 0 132-118v-174h-73zm-6 113v13h-14q-92 0-92-39 0-16 12.5-24t30.5-8q30 0 46.5 16t16.5 42z"/><glyph glyph-name="guillemotleft" unicode="«" horiz-adv-x="519" d="M257 421l-115-173 116-175-76-51-152 226 152 224zm223 0l-115-173 116-175-76-51-152 226 152 224z"/><glyph glyph-name="logicalnot" unicode="¬" horiz-adv-x="666" d="M502 147v195h-440v102h542v-297h-102z"/><glyph glyph-name="uni00AD" unicode="­" horiz-adv-x="320" d="M280 297v-102h-240v102h240z"/><glyph glyph-name="registered" unicode="®" horiz-adv-x="600" d="M528 493q0-93-66.5-158.5t-160.5-65.5q-95 0-162 65.5t-67 158.5q0 94 67 160.5t162 66.5q94 0 160.5-66.5t66.5-160.5zm-36 0q0 80-56 136.5t-135 56.5q-80 0-136.5-56.5t-56.5-136.5q0-79 56.5-135t136.5-56q79 0 135 56t56 135zm-60-125h-83l-50 96h-29v-96h-71v260h112q44 0 75.5-19.5t31.5-62.5q0-26-14.5-44.5t-37.5-26.5zm-89 177q0 12-11 18.5t-24 6.5h-38v-54h38q14 0 24.5 8.5t10.5 20.5z"/><glyph glyph-name="macron" unicode="¯" d="M290 673v-78h-320v78h320z"/><glyph glyph-name="degree" unicode="°" horiz-adv-x="400" d="M40 560q0 66 47 113t113 47 113-47 47-113-47-113-113-47-113 47-47 113zm78 0q0-34 24-58t58-24 58 24 24 58-24 58-58 24-58-24-24-58z"/><glyph glyph-name="plusminus" unicode="±" horiz-adv-x="666" d="M286 431v143h96v-143h204v-102h-204v-143h-96v143h-206v102h206zm-206-399v102h506v-102h-506z"/><glyph glyph-name="twosuperior" unicode="²" horiz-adv-x="400" d="M278 462l-100-97h169v-82h-291v76l162 161q36 36 36 70 0 22-15 35.5t-38 13.5q-25 0-42-18.5t-19-48.5l-88 12q7 59 48 97t101 38q61 0 103.5-33.5t42.5-94.5q0-62-69-129z"/><glyph glyph-name="threesuperior" unicode="³" horiz-adv-x="400" d="M148 469v71h28q32 0 53.5 13.5t21.5 43.5q0 20-15.5 32.5t-37.5 12.5q-21 0-36-14.5t-20-38.5l-86 21q14 48 54 79t91 31q63 0 102.5-30t39.5-88q0-62-55-93 66-25 66-100 0-64-45.5-98t-107.5-34q-125 0-161 112l85 25q19-58 72-58 27 0 46.5 14t19.5 43q0 56-88 56h-27z"/><glyph glyph-name="acute" unicode="´" d="M83 564l99 144h136l-141-144h-94z"/><glyph glyph-name="mu" unicode="µ" horiz-adv-x="574" d="M68 480h120v-243q0-26 2.5-45.5t10-44 26.5-38 49-13.5q56 0 83 34.5t27 87.5v262h120v-480h-114v77h-2q-41-89-137-89-45 0-65 24v-240h-120v708z"/><glyph glyph-name="paragraph" unicode="¶" horiz-adv-x="600" d="M246-126v464q-96 0-155.5 51t-59.5 131q0 97 61.5 142.5t171.5 45.5h269v-834h-90v762h-107v-762h-90z"/><glyph glyph-name="periodcentered" unicode="·" d="M50 291q0 32 23.5 55t56.5 23 56.5-22 23.5-54-23.5-55-56.5-23q-32 0-56 22t-24 54z"/><glyph glyph-name="cedilla" unicode="¸" d="M178 0l-45-64q8 1 19 1 105 0 105-83 0-50-41-72t-95-22q-61 0-110 26l23 48q38-20 82-20 57 0 57 41 0 36-53 36-21 0-39-6l-23 25 62 90h58z"/><glyph glyph-name="onesuperior" unicode="¹" horiz-adv-x="400" d="M95 535l-53 62 137 111h83v-429h-94v317z"/><glyph glyph-name="ordmasculine" unicode="º" horiz-adv-x="380" d="M342 574q0-64-43-106t-109-42-109 42-43 106q0 65 43 106.5t109 41.5 109-41.5 43-106.5zm-82 0q0 32-18.5 53.5t-51.5 21.5-51-21.5-18-53.5q0-31 18-53t51-22 51.5 22 18.5 53z"/><glyph glyph-name="guillemotright" unicode="»" horiz-adv-x="519" d="M262 73l115 173-116 175 76 51 152-226-152-224zm-223 0l115 173-116 175 76 51 152-226-152-224z"/><glyph glyph-name="onequarter" unicode="¼" horiz-adv-x="900" d="M682 0v85h-190v74l179 270h97v-265h58v-79h-58v-85h-86zm0 164v149h-1l-96-149h97zm-496-158l416 734 78-38-416-734zm-91 529l-53 62 137 111h83v-429h-94v317z"/><glyph glyph-name="onehalf" unicode="½" horiz-adv-x="900" d="M186 6l416 734 78-38-416-734zm585 173l-100-97h169v-82h-291v76l162 161q36 36 36 70 0 22-15 35.5t-38 13.5q-25 0-42-18.5t-19-48.5l-88 12q7 59 48 97t101 38q61 0 103.5-33.5t42.5-94.5q0-62-69-129zm-676 356l-53 62 137 111h83v-429h-94v317z"/><glyph glyph-name="threequarters" unicode="¾" horiz-adv-x="900" d="M682 0v85h-190v74l179 270h97v-265h58v-79h-58v-85h-86zm0 164v149h-1l-96-149h97zm-496-158l416 734 78-38-416-734zm-38 463v71h28q32 0 53.5 13.5t21.5 43.5q0 20-15.5 32.5t-37.5 12.5q-21 0-36-14.5t-20-38.5l-86 21q14 48 54 79t91 31q63 0 102.5-30t39.5-88q0-62-55-93 66-25 66-100 0-64-45.5-98t-107.5-34q-125 0-161 112l85 25q19-58 72-58 27 0 46.5 14t19.5 43q0 56-88 56h-27z"/><glyph glyph-name="questiondown" unicode="¿" horiz-adv-x="519" d="M195 285h118v-38q0-48-14-79t-52-67l-45-43q-46-42-46-89 0-40 25.5-66t68.5-26q45 0 72.5 30.5t29.5 73.5l123-11q-11-94-75-148t-158-54q-91 0-152 51t-61 142q0 58 23 94t77 83q41 36 53.5 57.5t12.5 63.5v26zm138 139q0-32-23.5-55t-56.5-23-56.5 22-23.5 54 23.5 55 56.5 23q32 0 56-22t24-54z"/><glyph glyph-name="Agrave" unicode="À" horiz-adv-x="706" d="M-8 0l308 708h109l305-708h-144l-66 162h-307l-64-162h-141zm248 270h220l-109 288zm64 638l99-144h-94l-141 144h136z"/><glyph glyph-name="Aacute" unicode="Á" horiz-adv-x="706" d="M-8 0l308 708h109l305-708h-144l-66 162h-307l-64-162h-141zm248 270h220l-109 288zm61 494l99 144h136l-141-144h-94z"/><glyph glyph-name="Acircumflex" unicode="Â" horiz-adv-x="706" d="M-8 0l308 708h109l305-708h-144l-66 162h-307l-64-162h-141zm248 270h220l-109 288zm297 494h-114l-69 90-69-90h-112l115 144h135z"/><glyph glyph-name="Atilde" unicode="Ã" horiz-adv-x="706" d="M-8 0l308 708h109l305-708h-144l-66 162h-307l-64-162h-141zm248 270h220l-109 288zm-4 498h-66q22 127 112 127 36 0 79-18 45-19 65-19 33 0 46 42h66q-22-127-112-127-37 0-82 20-39 18-62 18-32 0-46-43z"/><glyph glyph-name="Adieresis" unicode="Ä" horiz-adv-x="706" d="M-8 0l308 708h109l305-708h-144l-66 162h-307l-64-162h-141zm248 270h220l-109 288zm-54 574q0 28 20.5 49t50.5 21q31 0 52-20t21-50-21-50-52-20q-30 0-50.5 21t-20.5 49zm196 0q0 28 20.5 49t50.5 21q31 0 52-20t21-50-21-50-52-20q-30 0-50.5 21t-20.5 49z"/><glyph glyph-name="Aring" unicode="Å" horiz-adv-x="706" d="M-8 0l308 708h109l305-708h-144l-66 162h-307l-64-162h-141zm248 270h220l-109 288zm218 585q0-44-30-73t-75-29q-44 0-74.5 29t-30.5 72q0 44 30 73.5t75 29.5 75-29 30-73zm-46 0q0 25-17 41t-42 16-42-16.5-17-41.5q0-24 17-40t42-16 42 16 17 41z"/><glyph glyph-name="AE" unicode="Æ" horiz-adv-x="1046" d="M529 0v186h-268l-114-186h-153l453 708h536v-110h-328v-180h310v-106h-310v-200h346v-112h-472zm-202 294h202v304h-15z"/><glyph glyph-name="Ccedilla" unicode="Ç" horiz-adv-x="696" d="M685 618l-96-76q-26 36-70.5 54.5t-90.5 18.5q-108 0-176.5-74t-68.5-185q0-116 65.5-188.5t174.5-72.5q112 0 172 82l101-71q-92-117-258-123l-32-47q8 1 19 1 105 0 105-83 0-50-41-72t-95-22q-61 0-110 26l23 48q38-20 82-20 57 0 57 41 0 36-53 36-21 0-39-6l-23 25 51 74q-151 13-244.5 115t-93.5 257q0 167 108.5 268.5t275.5 101.5q74 0 145.5-27.5t111.5-80.5z"/><glyph glyph-name="Egrave" unicode="È" horiz-adv-x="610" d="M78 0v708h469v-110h-343v-180h325v-106h-325v-200h361v-112h-487zm218 908l99-144h-94l-141 144h136z"/><glyph glyph-name="Eacute" unicode="É" horiz-adv-x="610" d="M78 0v708h469v-110h-343v-180h325v-106h-325v-200h361v-112h-487zm175 764l99 144h136l-141-144h-94z"/><glyph glyph-name="Ecircumflex" unicode="Ê" horiz-adv-x="610" d="M78 0v708h469v-110h-343v-180h325v-106h-325v-200h361v-112h-487zm421 764h-114l-69 90-69-90h-112l115 144h135z"/><glyph glyph-name="Edieresis" unicode="Ë" horiz-adv-x="610" d="M78 0v708h469v-110h-343v-180h325v-106h-325v-200h361v-112h-487zm70 844q0 28 20.5 49t50.5 21q31 0 52-20t21-50-21-50-52-20q-30 0-50.5 21t-20.5 49zm196 0q0 28 20.5 49t50.5 21q31 0 52-20t21-50-21-50-52-20q-30 0-50.5 21t-20.5 49z"/><glyph glyph-name="Igrave" unicode="Ì" horiz-adv-x="282" d="M78 0v708h126v-708h-126zm26 908l99-144h-94l-141 144h136z"/><glyph glyph-name="Iacute" unicode="Í" horiz-adv-x="282" d="M78 0v708h126v-708h-126zm0 764l99 144h136l-141-144h-94z"/><glyph glyph-name="Icircumflex" unicode="Î" horiz-adv-x="282" d="M78 0v708h126v-708h-126zm244 764h-114l-69 90-69-90h-112l115 144h135z"/><glyph glyph-name="Idieresis" unicode="Ï" horiz-adv-x="282" d="M78 0v708h126v-708h-126zm-107 844q0 28 20.5 49t50.5 21q31 0 52-20t21-50-21-50-52-20q-30 0-50.5 21t-20.5 49zm196 0q0 28 20.5 49t50.5 21q31 0 52-20t21-50-21-50-52-20q-30 0-50.5 21t-20.5 49z"/><glyph glyph-name="Eth" unicode="Ð" horiz-adv-x="764" d="M79 0v324h-66v84h66v300h279q150 0 255-92t105-262q0-87-34.5-157t-90-111.5-120-63.5-130.5-22h-264zm126 114h94q128 0 207.5 59t79.5 181q0 123-71.5 181.5t-194.5 58.5h-115v-186h216v-84h-216v-210z"/><glyph glyph-name="Ntilde" unicode="Ñ" horiz-adv-x="780" d="M78 0v708h167l329-530h2v530h126v-708h-160l-336 547h-2v-547h-126zm193 768h-66q22 127 112 127 36 0 79-18 45-19 65-19 33 0 46 42h66q-22-127-112-127-37 0-82 20-39 18-62 18-32 0-46-43z"/><glyph glyph-name="Ograve" unicode="Ò" horiz-adv-x="849" d="M44 356q0 168 106.5 269t272.5 101q168 0 275-101t107-269q0-165-107.5-269.5t-274.5-104.5q-165 0-272 104.5t-107 269.5zm137 0q0-114 68-187.5t175-73.5q108 0 176 73.5t68 187.5q0 111-67.5 185t-176.5 74q-108 0-175.5-74t-67.5-185zm214 552l99-144h-94l-141 144h136z"/><glyph glyph-name="Oacute" unicode="Ó" horiz-adv-x="849" d="M44 356q0 168 106.5 269t272.5 101q168 0 275-101t107-269q0-165-107.5-269.5t-274.5-104.5q-165 0-272 104.5t-107 269.5zm137 0q0-114 68-187.5t175-73.5q108 0 176 73.5t68 187.5q0 111-67.5 185t-176.5 74q-108 0-175.5-74t-67.5-185zm180 408l99 144h136l-141-144h-94z"/><glyph glyph-name="Ocircumflex" unicode="Ô" horiz-adv-x="849" d="M44 356q0 168 106.5 269t272.5 101q168 0 275-101t107-269q0-165-107.5-269.5t-274.5-104.5q-165 0-272 104.5t-107 269.5zm137 0q0-114 68-187.5t175-73.5q108 0 176 73.5t68 187.5q0 111-67.5 185t-176.5 74q-108 0-175.5-74t-67.5-185zm430 408h-114l-69 90-69-90h-112l115 144h135z"/><glyph glyph-name="Otilde" unicode="Õ" horiz-adv-x="849" d="M44 356q0 168 106.5 269t272.5 101q168 0 275-101t107-269q0-165-107.5-269.5t-274.5-104.5q-165 0-272 104.5t-107 269.5zm137 0q0-114 68-187.5t175-73.5q108 0 176 73.5t68 187.5q0 111-67.5 185t-176.5 74q-108 0-175.5-74t-67.5-185zm129 412h-66q22 127 112 127 36 0 79-18 45-19 65-19 33 0 46 42h66q-22-127-112-127-37 0-82 20-39 18-62 18-32 0-46-43z"/><glyph glyph-name="Odieresis" unicode="Ö" horiz-adv-x="849" d="M44 356q0 168 106.5 269t272.5 101q168 0 275-101t107-269q0-165-107.5-269.5t-274.5-104.5q-165 0-272 104.5t-107 269.5zm137 0q0-114 68-187.5t175-73.5q108 0 176 73.5t68 187.5q0 111-67.5 185t-176.5 74q-108 0-175.5-74t-67.5-185zm76 488q0 28 20.5 49t50.5 21q31 0 52-20t21-50-21-50-52-20q-30 0-50.5 21t-20.5 49zm196 0q0 28 20.5 49t50.5 21q31 0 52-20t21-50-21-50-52-20q-30 0-50.5 21t-20.5 49z"/><glyph glyph-name="multiply" unicode="×" horiz-adv-x="666" d="M150 557l183-183 182 182 70-70-181-181 185-186-74-74-183 181-181-181-74 73 185 182-184 186z"/><glyph glyph-name="Oslash" unicode="Ø" horiz-adv-x="849" d="M44 356q0 168 106.5 269t272.5 101q130 0 225-62l85 93 49-43-83-91q106-103 106-267t-107.5-267.5-274.5-106.5q-141 0-240 77l-85-92-50 43 87 94q-91 96-91 252zm630 0q0 107-57 174l-352-383q60-55 159-55 110 0 180 74t70 190zm-499 0q0-97 45-159l349 378q-56 43-145 43-112 0-180.5-74t-68.5-188z"/><glyph glyph-name="Ugrave" unicode="Ù" horiz-adv-x="714" d="M642 708v-448q0-126-80.5-202t-204.5-76-204.5 76-80.5 202v448h126v-443q0-71 38-120.5t121-49.5 121 49.5 38 120.5v443h126zm-304 200l99-144h-94l-141 144h136z"/><glyph glyph-name="Uacute" unicode="Ú" horiz-adv-x="714" d="M642 708v-448q0-126-80.5-202t-204.5-76-204.5 76-80.5 202v448h126v-443q0-71 38-120.5t121-49.5 121 49.5 38 120.5v443h126zm-351 56l99 144h136l-141-144h-94z"/><glyph glyph-name="Ucircumflex" unicode="Û" horiz-adv-x="714" d="M642 708v-448q0-126-80.5-202t-204.5-76-204.5 76-80.5 202v448h126v-443q0-71 38-120.5t121-49.5 121 49.5 38 120.5v443h126zm-101 56h-114l-69 90-69-90h-112l115 144h135z"/><glyph glyph-name="Udieresis" unicode="Ü" horiz-adv-x="714" d="M642 708v-448q0-126-80.5-202t-204.5-76-204.5 76-80.5 202v448h126v-443q0-71 38-120.5t121-49.5 121 49.5 38 120.5v443h126zm-453 136q0 28 20.5 49t50.5 21q31 0 52-20t21-50-21-50-52-20q-30 0-50.5 21t-20.5 49zm196 0q0 28 20.5 49t50.5 21q31 0 52-20t21-50-21-50-52-20q-30 0-50.5 21t-20.5 49z"/><glyph glyph-name="Yacute" unicode="Ý" horiz-adv-x="622" d="M249 0v307l-266 401h154l178-298 180 298h146l-266-401v-307h-126zm17 764l99 144h136l-141-144h-94z"/><glyph glyph-name="Thorn" unicode="Þ" horiz-adv-x="610" d="M78 0v708h126v-134h105q267 0 267-205 0-110-76-160t-199-50h-97v-159h-126zm126 265h88q157 0 157 104 0 57-41.5 78t-111.5 21h-92v-203z"/><glyph glyph-name="germandbls" unicode="ß" horiz-adv-x="627" d="M72 0v507q0 113 60.5 187t183.5 74q94 0 154-56t60-139q0-52-30.5-94.5t-76.5-54.5v-2q75-13 119.5-67.5t44.5-132.5q0-104-67-169t-180-65q-44 0-87 11v101q30-10 70-10 64 0 102.5 37.5t38.5 100.5q0 67-43.5 101.5t-110.5 34.5h-13v102h15q44 0 71.5 26.5t27.5 69.5q0 41-25.5 71t-74.5 30q-65 0-92-48t-27-114v-501h-120z"/><glyph glyph-name="agrave" unicode="à" horiz-adv-x="550" d="M370 0v61h-3q-18-32-58.5-52.5t-90.5-20.5q-69 0-124.5 36.5t-55.5 112.5q0 41 20.5 71.5t51.5 47.5 77.5 27.5 88 13.5 92.5 3v12q0 42-31 65t-79 23q-76 0-131-55l-62 73q82 76 203 76 62 0 105.5-17.5t66.5-48 32.5-64 9.5-72.5v-292h-112zm-2 202v17h-27q-183 0-183-80 0-32 24.5-46t59.5-14q61 0 93.5 32.5t32.5 90.5zm-132 506l99-144h-94l-141 144h136z"/><glyph glyph-name="aacute" unicode="á" horiz-adv-x="550" d="M370 0v61h-3q-18-32-58.5-52.5t-90.5-20.5q-69 0-124.5 36.5t-55.5 112.5q0 41 20.5 71.5t51.5 47.5 77.5 27.5 88 13.5 92.5 3v12q0 42-31 65t-79 23q-76 0-131-55l-62 73q82 76 203 76 62 0 105.5-17.5t66.5-48 32.5-64 9.5-72.5v-292h-112zm-2 202v17h-27q-183 0-183-80 0-32 24.5-46t59.5-14q61 0 93.5 32.5t32.5 90.5zm-173 362l99 144h136l-141-144h-94z"/><glyph glyph-name="acircumflex" unicode="â" horiz-adv-x="550" d="M370 0v61h-3q-18-32-58.5-52.5t-90.5-20.5q-69 0-124.5 36.5t-55.5 112.5q0 41 20.5 71.5t51.5 47.5 77.5 27.5 88 13.5 92.5 3v12q0 42-31 65t-79 23q-76 0-131-55l-62 73q82 76 203 76 62 0 105.5-17.5t66.5-48 32.5-64 9.5-72.5v-292h-112zm-2 202v17h-27q-183 0-183-80 0-32 24.5-46t59.5-14q61 0 93.5 32.5t32.5 90.5zm88 362h-114l-69 90-69-90h-112l115 144h135z"/><glyph glyph-name="atilde" unicode="ã" horiz-adv-x="550" d="M370 0v61h-3q-18-32-58.5-52.5t-90.5-20.5q-69 0-124.5 36.5t-55.5 112.5q0 41 20.5 71.5t51.5 47.5 77.5 27.5 88 13.5 92.5 3v12q0 42-31 65t-79 23q-76 0-131-55l-62 73q82 76 203 76 62 0 105.5-17.5t66.5-48 32.5-64 9.5-72.5v-292h-112zm-2 202v17h-27q-183 0-183-80 0-32 24.5-46t59.5-14q61 0 93.5 32.5t32.5 90.5zm-215 366h-66q22 127 112 127 36 0 79-18 45-19 65-19 33 0 46 42h66q-22-127-112-127-37 0-82 20-39 18-62 18-32 0-46-43z"/><glyph glyph-name="adieresis" unicode="ä" horiz-adv-x="550" d="M370 0v61h-3q-18-32-58.5-52.5t-90.5-20.5q-69 0-124.5 36.5t-55.5 112.5q0 41 20.5 71.5t51.5 47.5 77.5 27.5 88 13.5 92.5 3v12q0 42-31 65t-79 23q-76 0-131-55l-62 73q82 76 203 76 62 0 105.5-17.5t66.5-48 32.5-64 9.5-72.5v-292h-112zm-2 202v17h-27q-183 0-183-80 0-32 24.5-46t59.5-14q61 0 93.5 32.5t32.5 90.5zm-265 442q0 28 20.5 49t50.5 21q31 0 52-20t21-50-21-50-52-20q-30 0-50.5 21t-20.5 49zm196 0q0 28 20.5 49t50.5 21q31 0 52-20t21-50-21-50-52-20q-30 0-50.5 21t-20.5 49z"/><glyph glyph-name="aring" unicode="å" horiz-adv-x="550" d="M370 0v61h-3q-18-32-58.5-52.5t-90.5-20.5q-69 0-124.5 36.5t-55.5 112.5q0 41 20.5 71.5t51.5 47.5 77.5 27.5 88 13.5 92.5 3v12q0 42-31 65t-79 23q-76 0-131-55l-62 73q82 76 203 76 62 0 105.5-17.5t66.5-48 32.5-64 9.5-72.5v-292h-112zm-2 202v17h-27q-183 0-183-80 0-32 24.5-46t59.5-14q61 0 93.5 32.5t32.5 90.5zm6 453q0-44-30-73t-75-29q-44 0-74.5 29t-30.5 72q0 44 30 73.5t75 29.5 75-29 30-73zm-46 0q0 25-17 41t-42 16-42-16.5-17-41.5q0-24 17-40t42-16 42 16 17 41z"/><glyph glyph-name="ae" unicode="æ" horiz-adv-x="887" d="M611 494q104 0 168-67t64-193q0-21-1-32h-365q6-52 45-85t92-33q82 0 127 63l79-65q-70-96-206-96-130 0-190 96-51-94-201-94-44 0-84.5 14t-70.5 49.5-30 85.5q0 48 25 79.5t75 46.5 102 20 128 5v10q0 102-109 102-35 0-71.5-15.5t-60.5-39.5l-61 73q81 76 202 76 58 0 99.5-23.5t63.5-58.5q60 82 180 82zm-243-308v16h-27q-94 0-138.5-12.5t-44.5-50.5q0-32 24.5-46t59.5-14q61 0 93.5 28t32.5 79zm109 102h246q0 50-29 83t-84 33q-53 0-91-33t-42-83z"/><glyph glyph-name="ccedilla" unicode="ç" horiz-adv-x="488" d="M482 419l-82-72q-14 20-42 33.5t-57 13.5q-62 0-97-46.5t-35-107.5q0-62 36-108t100-46q66 0 101 43l75-76q-58-62-165-67l-35-50q8 1 19 1 105 0 105-83 0-50-41-72t-95-22q-61 0-110 26l23 48q38-20 82-20 57 0 57 41 0 36-53 36-21 0-39-6l-23 25 54 79q-95 13-155.5 79.5t-60.5 171.5q0 114 74 184t183 70q53 0 103-20t78-55z"/><glyph glyph-name="egrave" unicode="è" horiz-adv-x="574" d="M164 288h246q0 50-29 83t-84 33q-53 0-91-33t-42-83zm366-54q0-21-1-32h-365q4-50 44-84t93-34q83 0 127 62l80-64q-71-96-206-96-113 0-185.5 68t-72.5 183 72 186 182 71q104 0 168-67t64-193zm-270 474l99-144h-94l-141 144h136z"/><glyph glyph-name="eacute" unicode="é" horiz-adv-x="574" d="M164 288h246q0 50-29 83t-84 33q-53 0-91-33t-42-83zm366-54q0-21-1-32h-365q4-50 44-84t93-34q83 0 127 62l80-64q-71-96-206-96-113 0-185.5 68t-72.5 183 72 186 182 71q104 0 168-67t64-193zm-299 330l99 144h136l-141-144h-94z"/><glyph glyph-name="ecircumflex" unicode="ê" horiz-adv-x="574" d="M164 288h246q0 50-29 83t-84 33q-53 0-91-33t-42-83zm366-54q0-21-1-32h-365q4-50 44-84t93-34q83 0 127 62l80-64q-71-96-206-96-113 0-185.5 68t-72.5 183 72 186 182 71q104 0 168-67t64-193zm-46 330h-114l-69 90-69-90h-112l115 144h135z"/><glyph glyph-name="edieresis" unicode="ë" horiz-adv-x="574" d="M164 288h246q0 50-29 83t-84 33q-53 0-91-33t-42-83zm366-54q0-21-1-32h-365q4-50 44-84t93-34q83 0 127 62l80-64q-71-96-206-96-113 0-185.5 68t-72.5 183 72 186 182 71q104 0 168-67t64-193zm-400 410q0 28 20.5 49t50.5 21q31 0 52-20t21-50-21-50-52-20q-30 0-50.5 21t-20.5 49zm196 0q0 28 20.5 49t50.5 21q31 0 52-20t21-50-21-50-52-20q-30 0-50.5 21t-20.5 49z"/><glyph glyph-name="igrave" unicode="ì" horiz-adv-x="268" d="M74 0v480h120v-480h-120zm20 708l99-144h-94l-141 144h136z"/><glyph glyph-name="iacute" unicode="í" horiz-adv-x="268" d="M74 0v480h120v-480h-120zm1 564l99 144h136l-141-144h-94z"/><glyph glyph-name="icircumflex" unicode="î" horiz-adv-x="268" d="M74 0v480h120v-480h-120zm243 564h-114l-69 90-69-90h-112l115 144h135z"/><glyph glyph-name="idieresis" unicode="ï" horiz-adv-x="268" d="M74 0v480h120v-480h-120zm-109 644q0 28 20.5 49t50.5 21q31 0 52-20t21-50-21-50-52-20q-30 0-50.5 21t-20.5 49zm196 0q0 28 20.5 49t50.5 21q31 0 52-20t21-50-21-50-52-20q-30 0-50.5 21t-20.5 49z"/><glyph glyph-name="eth" unicode="ð" horiz-adv-x="610" d="M442 768l64-56-117-54q178-195 178-386 0-127-68.5-206.5t-193.5-79.5q-112 0-186.5 71t-74.5 183q0 111 73.5 182.5t179.5 71.5q71 0 112-40l2 2q-64 104-127 156l-108-50-60 57 110 50q-21 23-78 65l94 55q46-36 87-74zm-137-682q67 0 104 46t37 108-37 108-104 46-104-46-37-108 37-108 104-46z"/><glyph glyph-name="ntilde" unicode="ñ" horiz-adv-x="582" d="M72 0v480h114v-77h2q17 38 57.5 64.5t91.5 26.5q88 0 132.5-56.5t44.5-137.5v-300h-120v266q0 128-90 128-54 0-83-38.5t-29-91.5v-264h-120zm103 568h-66q22 127 112 127 36 0 79-18 45-19 65-19 33 0 46 42h66q-22-127-112-127-37 0-82 20-39 18-62 18-32 0-46-43z"/><glyph glyph-name="ograve" unicode="ò" horiz-adv-x="610" d="M44 242q0 111 75 181.5t186 70.5 186-70.5 75-181.5q0-112-75.5-184t-185.5-72-185.5 72-75.5 184zm122 0q0-62 36-109t103-47 103 47 36 109-36 108-103 46-103-46-36-108zm114 466l99-144h-94l-141 144h136z"/><glyph glyph-name="oacute" unicode="ó" horiz-adv-x="610" d="M44 242q0 111 75 181.5t186 70.5 186-70.5 75-181.5q0-112-75.5-184t-185.5-72-185.5 72-75.5 184zm122 0q0-62 36-109t103-47 103 47 36 109-36 108-103 46-103-46-36-108zm67 322l99 144h136l-141-144h-94z"/><glyph glyph-name="ocircumflex" unicode="ô" horiz-adv-x="610" d="M44 242q0 111 75 181.5t186 70.5 186-70.5 75-181.5q0-112-75.5-184t-185.5-72-185.5 72-75.5 184zm122 0q0-62 36-109t103-47 103 47 36 109-36 108-103 46-103-46-36-108zm323 322h-114l-69 90-69-90h-112l115 144h135z"/><glyph glyph-name="otilde" unicode="õ" horiz-adv-x="610" d="M44 242q0 111 75 181.5t186 70.5 186-70.5 75-181.5q0-112-75.5-184t-185.5-72-185.5 72-75.5 184zm122 0q0-62 36-109t103-47 103 47 36 109-36 108-103 46-103-46-36-108zm23 326h-66q22 127 112 127 36 0 79-18 45-19 65-19 33 0 46 42h66q-22-127-112-127-37 0-82 20-39 18-62 18-32 0-46-43z"/><glyph glyph-name="odieresis" unicode="ö" horiz-adv-x="610" d="M44 242q0 111 75 181.5t186 70.5 186-70.5 75-181.5q0-112-75.5-184t-185.5-72-185.5 72-75.5 184zm122 0q0-62 36-109t103-47 103 47 36 109-36 108-103 46-103-46-36-108zm-29 402q0 28 20.5 49t50.5 21q31 0 52-20t21-50-21-50-52-20q-30 0-50.5 21t-20.5 49zm196 0q0 28 20.5 49t50.5 21q31 0 52-20t21-50-21-50-52-20q-30 0-50.5 21t-20.5 49z"/><glyph glyph-name="divide" unicode="÷" horiz-adv-x="666" d="M258 483q0 31 22 53t53 22 53-22 22-53-22-53-53-22-53 22-22 53zm0-360q0 31 22 53t53 22 53-22 22-53-22-53-53-22-53 22-22 53zm328 127h-506v107h506v-107z"/><glyph glyph-name="oslash" unicode="ø" horiz-adv-x="610" d="M184 156l207 213q-36 31-86 31-68 0-105.5-49t-37.5-112q0-54 22-83zm243 170l-209-212q32-31 87-31 71 0 107 47.5t36 111.5q0 51-21 84zm106 190l42-40-69-71q60-69 60-165 0-112-75-183t-186-71q-94 0-159 51l-70-71-40 41 67 68q-59 67-59 165 0 112 75 183t186 71q94 0 158-50z"/><glyph glyph-name="ugrave" unicode="ù" horiz-adv-x="582" d="M510 480v-480h-114v77h-2q-17-38-57.5-64.5t-91.5-26.5q-88 0-132.5 56.5t-44.5 137.5v300h120v-266q0-128 90-128 54 0 83 38.5t29 91.5v264h120zm-246 228l99-144h-94l-141 144h136z"/><glyph glyph-name="uacute" unicode="ú" horiz-adv-x="582" d="M510 480v-480h-114v77h-2q-17-38-57.5-64.5t-91.5-26.5q-88 0-132.5 56.5t-44.5 137.5v300h120v-266q0-128 90-128 54 0 83 38.5t29 91.5v264h120zm-285 84l99 144h136l-141-144h-94z"/><glyph glyph-name="ucircumflex" unicode="û" horiz-adv-x="582" d="M510 480v-480h-114v77h-2q-17-38-57.5-64.5t-91.5-26.5q-88 0-132.5 56.5t-44.5 137.5v300h120v-266q0-128 90-128 54 0 83 38.5t29 91.5v264h120zm-35 84h-114l-69 90-69-90h-112l115 144h135z"/><glyph glyph-name="udieresis" unicode="ü" horiz-adv-x="582" d="M510 480v-480h-114v77h-2q-17-38-57.5-64.5t-91.5-26.5q-88 0-132.5 56.5t-44.5 137.5v300h120v-266q0-128 90-128 54 0 83 38.5t29 91.5v264h120zm-388 164q0 28 20.5 49t50.5 21q31 0 52-20t21-50-21-50-52-20q-30 0-50.5 21t-20.5 49zm196 0q0 28 20.5 49t50.5 21q31 0 52-20t21-50-21-50-52-20q-30 0-50.5 21t-20.5 49z"/><glyph glyph-name="yacute" unicode="ý" horiz-adv-x="513" d="M206 0l-206 480h133l134-349h2l119 349h125l-227-583q-28-71-67.5-104t-114.5-33q-33 0-62 7l10 104q22-7 45-7 36 0 52 16.5t33 58.5zm-1 564l99 144h136l-141-144h-94z"/><glyph glyph-name="thorn" unicode="þ" horiz-adv-x="635" d="M74 756h120v-337h3q60 75 161 75 102 0 167.5-72t65.5-180-64.5-182-171.5-74q-51 0-95 22t-64 58h-2v-294h-120v984zm395-514q0 62-36.5 108t-101.5 46q-63 0-102-48t-39-108 39-107 102-47q65 0 101.5 47t36.5 109z"/><glyph glyph-name="ydieresis" unicode="ÿ" horiz-adv-x="513" d="M206 0l-206 480h133l134-349h2l119 349h125l-227-583q-28-71-67.5-104t-114.5-33q-33 0-62 7l10 104q22-7 45-7 36 0 52 16.5t33 58.5zm-108 644q0 28 20.5 49t50.5 21q31 0 52-20t21-50-21-50-52-20q-30 0-50.5 21t-20.5 49zm196 0q0 28 20.5 49t50.5 21q31 0 52-20t21-50-21-50-52-20q-30 0-50.5 21t-20.5 49z"/><glyph glyph-name="Amacron" unicode="Ā" horiz-adv-x="706" d="M-8 0l308 708h109l305-708h-144l-66 162h-307l-64-162h-141zm248 270h220l-109 288zm275 603v-78h-320v78h320z"/><glyph glyph-name="amacron" unicode="ā" horiz-adv-x="550" d="M370 0v61h-3q-18-32-58.5-52.5t-90.5-20.5q-69 0-124.5 36.5t-55.5 112.5q0 41 20.5 71.5t51.5 47.5 77.5 27.5 88 13.5 92.5 3v12q0 42-31 65t-79 23q-76 0-131-55l-62 73q82 76 203 76 62 0 105.5-17.5t66.5-48 32.5-64 9.5-72.5v-292h-112zm-2 202v17h-27q-183 0-183-80 0-32 24.5-46t59.5-14q61 0 93.5 32.5t32.5 90.5zm76 471v-78h-320v78h320z"/><glyph glyph-name="Abreve" unicode="Ă" horiz-adv-x="706" d="M-8 0l308 708h109l305-708h-144l-66 162h-307l-64-162h-141zm248 270h220l-109 288zm-56 638h67q12-66 103-66 46 0 70 13t34 53h66q-7-72-52.5-108t-118.5-36q-74 0-119.5 36t-49.5 108z"/><glyph glyph-name="abreve" unicode="ă" horiz-adv-x="550" d="M370 0v61h-3q-18-32-58.5-52.5t-90.5-20.5q-69 0-124.5 36.5t-55.5 112.5q0 41 20.5 71.5t51.5 47.5 77.5 27.5 88 13.5 92.5 3v12q0 42-31 65t-79 23q-76 0-131-55l-62 73q82 76 203 76 62 0 105.5-17.5t66.5-48 32.5-64 9.5-72.5v-292h-112zm-2 202v17h-27q-183 0-183-80 0-32 24.5-46t59.5-14q61 0 93.5 32.5t32.5 90.5zm-259 506h67q12-66 103-66 46 0 70 13t34 53h66q-7-72-52.5-108t-118.5-36q-74 0-119.5 36t-49.5 108z"/><glyph glyph-name="Aogonek" unicode="Ą" horiz-adv-x="706" d="M653-147l25-49q-48-38-100-38-42 0-72.5 24t-30.5 65q0 38 28.5 77.5t65.5 68.5l-65 161h-307l-64-162h-141l308 708h109l305-708h-85q-76-71-76-122 0-19 13.5-32.5t32.5-13.5q29 0 54 21zm-413 417h220l-109 288z"/><glyph glyph-name="aogonek" unicode="ą" horiz-adv-x="550" d="M447-147l25-49q-48-38-100-38-42 0-72.5 24t-30.5 65q0 39 30.5 80t69.5 71h1v55h-3q-18-32-58.5-52.5t-90.5-20.5q-69 0-124.5 36.5t-55.5 112.5q0 41 20.5 71.5t51.5 47.5 77.5 27.5 88 13.5 92.5 3v12q0 42-31 65t-79 23q-76 0-131-55l-62 73q82 76 203 76 62 0 105.5-17.5t66.5-48 32.5-64 9.5-72.5v-292h-59q-76-71-76-122 0-19 13.5-32.5t32.5-13.5q29 0 54 21zm-79 349v17h-27q-183 0-183-80 0-32 24.5-46t59.5-14q61 0 93.5 32.5t32.5 90.5z"/><glyph glyph-name="Cacute" unicode="Ć" horiz-adv-x="696" d="M685 618l-96-76q-26 36-70.5 54.5t-90.5 18.5q-108 0-176.5-74t-68.5-185q0-116 65.5-188.5t174.5-72.5q112 0 172 82l101-71q-99-124-274-124-166 0-272 104.5t-106 269.5q0 167 108.5 268.5t275.5 101.5q74 0 145.5-27.5t111.5-80.5zm-355 146l99 144h136l-141-144h-94z"/><glyph glyph-name="cacute" unicode="ć" horiz-adv-x="488" d="M482 419l-82-72q-14 20-42 33.5t-57 13.5q-62 0-97-46.5t-35-107.5q0-62 36-108t100-46q66 0 101 43l75-76q-62-67-177-67-110 0-185 69t-75 185q0 114 74 184t183 70q53 0 103-20t78-55zm-253 145l99 144h136l-141-144h-94z"/><glyph glyph-name="Ccircumflex" unicode="Ĉ" horiz-adv-x="696" d="M685 618l-96-76q-26 36-70.5 54.5t-90.5 18.5q-108 0-176.5-74t-68.5-185q0-116 65.5-188.5t174.5-72.5q112 0 172 82l101-71q-99-124-274-124-166 0-272 104.5t-106 269.5q0 167 108.5 268.5t275.5 101.5q74 0 145.5-27.5t111.5-80.5zm-74 146h-114l-69 90-69-90h-112l115 144h135z"/><glyph glyph-name="ccircumflex" unicode="ĉ" horiz-adv-x="488" d="M482 419l-82-72q-14 20-42 33.5t-57 13.5q-62 0-97-46.5t-35-107.5q0-62 36-108t100-46q66 0 101 43l75-76q-62-67-177-67-110 0-185 69t-75 185q0 114 74 184t183 70q53 0 103-20t78-55zm1 145h-114l-69 90-69-90h-112l115 144h135z"/><glyph glyph-name="Cdotaccent" unicode="Ċ" horiz-adv-x="696" d="M685 618l-96-76q-26 36-70.5 54.5t-90.5 18.5q-108 0-176.5-74t-68.5-185q0-116 65.5-188.5t174.5-72.5q112 0 172 82l101-71q-99-124-274-124-166 0-272 104.5t-106 269.5q0 167 108.5 268.5t275.5 101.5q74 0 145.5-27.5t111.5-80.5zm-336 225q0 29 22 50.5t54 21.5q33 0 55.5-20.5t22.5-51.5-22.5-51.5-55.5-20.5q-32 0-54 21.5t-22 50.5z"/><glyph glyph-name="cdotaccent" unicode="ċ" horiz-adv-x="488" d="M482 419l-82-72q-14 20-42 33.5t-57 13.5q-62 0-97-46.5t-35-107.5q0-62 36-108t100-46q66 0 101 43l75-76q-62-67-177-67-110 0-185 69t-75 185q0 114 74 184t183 70q53 0 103-20t78-55zm-260 224q0 29 22 50.5t54 21.5q33 0 55.5-20.5t22.5-51.5-22.5-51.5-55.5-20.5q-32 0-54 21.5t-22 50.5z"/><glyph glyph-name="Ccaron" unicode="Č" horiz-adv-x="696" d="M685 618l-96-76q-26 36-70.5 54.5t-90.5 18.5q-108 0-176.5-74t-68.5-185q0-116 65.5-188.5t174.5-72.5q112 0 172 82l101-71q-99-124-274-124-166 0-272 104.5t-106 269.5q0 167 108.5 268.5t275.5 101.5q74 0 145.5-27.5t111.5-80.5zm-442 290h114l69-90 69 90h110l-115-144h-133z"/><glyph glyph-name="ccaron" unicode="č" horiz-adv-x="488" d="M482 419l-82-72q-14 20-42 33.5t-57 13.5q-62 0-97-46.5t-35-107.5q0-62 36-108t100-46q66 0 101 43l75-76q-62-67-177-67-110 0-185 69t-75 185q0 114 74 184t183 70q53 0 103-20t78-55zm-361 289h114l69-90 69 90h110l-115-144h-133z"/><glyph glyph-name="Dcaron" unicode="Ď" horiz-adv-x="764" d="M78 0v708h251q74 0 140-18.5t124-58 92.5-111 34.5-166.5q0-89-34.5-159t-92-111.5-125-62.5-139.5-21h-251zm126 110h105q41 0 78.5 7t74.5 24.5 63.5 44 43 70 16.5 98.5q0 246-276 246h-105v-490zm-41 798h114l69-90 69 90h110l-115-144h-133z"/><glyph glyph-name="dcaron" unicode="ď" horiz-adv-x="720" d="M560 756v-756h-114v72h-2q-24-41-69-63.5t-96-22.5q-107 0-171.5 74t-64.5 182 65.5 180 167.5 72q101 0 161-75h3v337h120zm-395-514q0-62 36.5-109t101.5-47q63 0 102 47t39 107-39 108-102 48q-65 0-101.5-46t-36.5-108zm422 271l65 195h106l-80-195h-91z"/><glyph glyph-name="Dcroat" unicode="Đ" horiz-adv-x="764" d="M79 0v324h-66v84h66v300h279q150 0 255-92t105-262q0-87-34.5-157t-90-111.5-120-63.5-130.5-22h-264zm126 114h94q128 0 207.5 59t79.5 181q0 123-71.5 181.5t-194.5 58.5h-115v-186h216v-84h-216v-210z"/><glyph glyph-name="dcroat" unicode="đ" horiz-adv-x="634" d="M614 645v-75h-54v-570h-114v72h-2q-24-41-69-63.5t-96-22.5q-107 0-171.5 74t-64.5 182 65.5 180 167.5 72q101 0 161-75h3v151h-170v75h170v111h120v-111h54zm-449-403q0-62 36.5-109t101.5-47q63 0 102 47t39 107-39 108-102 48q-65 0-101.5-46t-36.5-108z"/><glyph glyph-name="Emacron" unicode="Ē" horiz-adv-x="610" d="M78 0v708h469v-110h-343v-180h325v-106h-325v-200h361v-112h-487zm399 873v-78h-320v78h320z"/><glyph glyph-name="emacron" unicode="ē" horiz-adv-x="574" d="M164 288h246q0 50-29 83t-84 33q-53 0-91-33t-42-83zm366-54q0-21-1-32h-365q4-50 44-84t93-34q83 0 127 62l80-64q-71-96-206-96-113 0-185.5 68t-72.5 183 72 186 182 71q104 0 168-67t64-193zm-71 439v-78h-320v78h320z"/><glyph glyph-name="Ebreve" unicode="Ĕ" horiz-adv-x="610" d="M78 0v708h469v-110h-343v-180h325v-106h-325v-200h361v-112h-487zm68 908h67q12-66 103-66 46 0 70 13t34 53h66q-7-72-52.5-108t-118.5-36q-74 0-119.5 36t-49.5 108z"/><glyph glyph-name="ebreve" unicode="ĕ" horiz-adv-x="574" d="M164 288h246q0 50-29 83t-84 33q-53 0-91-33t-42-83zm366-54q0-21-1-32h-365q4-50 44-84t93-34q83 0 127 62l80-64q-71-96-206-96-113 0-185.5 68t-72.5 183 72 186 182 71q104 0 168-67t64-193zm-399 474h67q12-66 103-66 46 0 70 13t34 53h66q-7-72-52.5-108t-118.5-36q-74 0-119.5 36t-49.5 108z"/><glyph glyph-name="Edotaccent" unicode="Ė" horiz-adv-x="610" d="M78 0v708h469v-110h-343v-180h325v-106h-325v-200h361v-112h-487zm166 843q0 29 22 50.5t54 21.5q33 0 55.5-20.5t22.5-51.5-22.5-51.5-55.5-20.5q-32 0-54 21.5t-22 50.5z"/><glyph glyph-name="edotaccent" unicode="ė" horiz-adv-x="574" d="M164 288h246q0 50-29 83t-84 33q-53 0-91-33t-42-83zm366-54q0-21-1-32h-365q4-50 44-84t93-34q83 0 127 62l80-64q-71-96-206-96-113 0-185.5 68t-72.5 183 72 186 182 71q104 0 168-67t64-193zm-308 409q0 29 22 50.5t54 21.5q33 0 55.5-20.5t22.5-51.5-22.5-51.5-55.5-20.5q-32 0-54 21.5t-22 50.5z"/><glyph glyph-name="Eogonek" unicode="Ę" horiz-adv-x="610" d="M78 0v708h469v-110h-343v-180h325v-106h-325v-200h361v-112h-26q-76-71-76-122 0-19 13.5-32.5t32.5-13.5q29 0 54 21l25-49q-48-38-100-38-42 0-72.5 24t-30.5 65q0 37 27.5 76t64.5 69h-399z"/><glyph glyph-name="eogonek" unicode="ę" horiz-adv-x="574" d="M395-147l25-49q-48-38-100-38-42 0-72.5 24t-30.5 65q0 63 76 131-110 3-179.5 70.5t-69.5 180.5q0 115 72 186t182 71q104 0 168-67t64-193q0-21-1-32h-365q4-50 44-84t93-34q83 0 127 62l80-64q-54-73-146-90-67-67-67-114 0-19 13.5-32.5t32.5-13.5q29 0 54 21zm-231 435h246q0 50-29 83t-84 33q-53 0-91-33t-42-83z"/><glyph glyph-name="Ecaron" unicode="Ě" horiz-adv-x="610" d="M78 0v708h469v-110h-343v-180h325v-106h-325v-200h361v-112h-487zm57 908h114l69-90 69 90h110l-115-144h-133z"/><glyph glyph-name="ecaron" unicode="ě" horiz-adv-x="574" d="M164 288h246q0 50-29 83t-84 33q-53 0-91-33t-42-83zm366-54q0-21-1-32h-365q4-50 44-84t93-34q83 0 127 62l80-64q-71-96-206-96-113 0-185.5 68t-72.5 183 72 186 182 71q104 0 168-67t64-193zm-410 474h114l69-90 69 90h110l-115-144h-133z"/><glyph glyph-name="Gcircumflex" unicode="Ĝ" horiz-adv-x="773" d="M698 404v-367q-115-55-267-55-171 0-279 104t-108 270q0 167 108.5 268.5t275.5 101.5q82 0 153.5-24t115.5-65l-87-94q-28 31-77 51.5t-104 20.5q-110 0-178-74t-68-185q0-115 68.5-188t183.5-73q81 0 141 25v180h-149v104h271zm-85 360h-114l-69 90-69-90h-112l115 144h135z"/><glyph glyph-name="gcircumflex" unicode="ĝ" horiz-adv-x="632" d="M446 480h114v-437q0-134-67.5-208.5t-203.5-74.5q-61 0-127 21t-111 58l69 93q71-68 168-68 152 0 152 165v35h-2q-54-72-157-72-105 0-171 72.5t-66 177.5q0 107 64.5 179.5t170.5 72.5q113 0 165-86h2v72zm-142-84q-63 0-100.5-43.5t-37.5-109.5q0-61 37.5-106.5t99.5-45.5q64 0 103.5 44.5t39.5 107.5q0 64-39 108.5t-103 44.5zm203 168h-114l-69 90-69-90h-112l115 144h135z"/><glyph glyph-name="Gbreve" unicode="Ğ" horiz-adv-x="773" d="M698 404v-367q-115-55-267-55-171 0-279 104t-108 270q0 167 108.5 268.5t275.5 101.5q82 0 153.5-24t115.5-65l-87-94q-28 31-77 51.5t-104 20.5q-110 0-178-74t-68-185q0-115 68.5-188t183.5-73q81 0 141 25v180h-149v104h271zm-438 504h67q12-66 103-66 46 0 70 13t34 53h66q-7-72-52.5-108t-118.5-36q-74 0-119.5 36t-49.5 108z"/><glyph glyph-name="gbreve" unicode="ğ" horiz-adv-x="632" d="M446 480h114v-437q0-134-67.5-208.5t-203.5-74.5q-61 0-127 21t-111 58l69 93q71-68 168-68 152 0 152 165v35h-2q-54-72-157-72-105 0-171 72.5t-66 177.5q0 107 64.5 179.5t170.5 72.5q113 0 165-86h2v72zm-142-84q-63 0-100.5-43.5t-37.5-109.5q0-61 37.5-106.5t99.5-45.5q64 0 103.5 44.5t39.5 107.5q0 64-39 108.5t-103 44.5zm-161 312h67q12-66 103-66 46 0 70 13t34 53h66q-7-72-52.5-108t-118.5-36q-74 0-119.5 36t-49.5 108z"/><glyph glyph-name="Gdotaccent" unicode="Ġ" horiz-adv-x="773" d="M698 404v-367q-115-55-267-55-171 0-279 104t-108 270q0 167 108.5 268.5t275.5 101.5q82 0 153.5-24t115.5-65l-87-94q-28 31-77 51.5t-104 20.5q-110 0-178-74t-68-185q0-115 68.5-188t183.5-73q81 0 141 25v180h-149v104h271zm-344 439q0 29 22 50.5t54 21.5q33 0 55.5-20.5t22.5-51.5-22.5-51.5-55.5-20.5q-32 0-54 21.5t-22 50.5z"/><glyph glyph-name="gdotaccent" unicode="ġ" horiz-adv-x="632" d="M446 480h114v-437q0-134-67.5-208.5t-203.5-74.5q-61 0-127 21t-111 58l69 93q71-68 168-68 152 0 152 165v35h-2q-54-72-157-72-105 0-171 72.5t-66 177.5q0 107 64.5 179.5t170.5 72.5q113 0 165-86h2v72zm-142-84q-63 0-100.5-43.5t-37.5-109.5q0-61 37.5-106.5t99.5-45.5q64 0 103.5 44.5t39.5 107.5q0 64-39 108.5t-103 44.5zm-65 247q0 29 22 50.5t54 21.5q33 0 55.5-20.5t22.5-51.5-22.5-51.5-55.5-20.5q-32 0-54 21.5t-22 50.5z"/><glyph glyph-name="Gcommaaccent" unicode="Ģ" horiz-adv-x="773" d="M698 404v-367q-115-55-267-55-171 0-279 104t-108 270q0 167 108.5 268.5t275.5 101.5q82 0 153.5-24t115.5-65l-87-94q-28 31-77 51.5t-104 20.5q-110 0-178-74t-68-185q0-115 68.5-188t183.5-73q81 0 141 25v180h-149v104h271zm-377-644l65 195h106l-80-195h-91z"/><glyph glyph-name="gcommaaccent" unicode="ģ" horiz-adv-x="632" d="M446 480h114v-437q0-134-67.5-208.5t-203.5-74.5q-61 0-127 21t-111 58l69 93q71-68 168-68 152 0 152 165v35h-2q-54-72-157-72-105 0-171 72.5t-66 177.5q0 107 64.5 179.5t170.5 72.5q113 0 165-86h2v72zm-142-84q-63 0-100.5-43.5t-37.5-109.5q0-61 37.5-106.5t99.5-45.5q64 0 103.5 44.5t39.5 107.5q0 64-39 108.5t-103 44.5zm96 363l-65-195h-106l80 195h91z"/><glyph glyph-name="Hcircumflex" unicode="Ĥ" horiz-adv-x="739" d="M78 0v708h126v-286h331v286h126v-708h-126v314h-331v-314h-126zm475 764h-114l-69 90-69-90h-112l115 144h135z"/><glyph glyph-name="hcircumflex" unicode="ĥ" horiz-adv-x="584" d="M339 494q88 0 132.5-56.5t44.5-137.5v-300h-120v264q0 127-89 127-54 0-83.5-38.5t-29.5-90.5v-262h-120v756h120v-343h2q16 33 54.5 57t88.5 24zm137 302h-114l-69 90-69-90h-112l115 144h135z"/><glyph glyph-name="Hbar" unicode="Ħ" horiz-adv-x="739" d="M78 0v708h126v-133h331v133h126v-708h-126v314h-331v-314h-126zm126 422h331v78h-331v-78z"/><glyph glyph-name="hbar" unicode="ħ" horiz-adv-x="584" d="M364 645v-75h-170v-157h2q16 33 54.5 57t88.5 24q88 0 132.5-56.5t44.5-137.5v-300h-120v264q0 127-89 127-54 0-83.5-38.5t-29.5-90.5v-262h-120v570h-54v75h54v111h120v-111h170z"/><glyph glyph-name="Itilde" unicode="Ĩ" horiz-adv-x="282" d="M78 0v708h126v-708h-126zm-55 768h-66q22 127 112 127 36 0 79-18 45-19 65-19 33 0 46 42h66q-22-127-112-127-37 0-82 20-39 18-62 18-32 0-46-43z"/><glyph glyph-name="itilde" unicode="ĩ" horiz-adv-x="268" d="M74 0v480h120v-480h-120zm-56 568h-66q22 127 112 127 36 0 79-18 45-19 65-19 33 0 46 42h66q-22-127-112-127-37 0-82 20-39 18-62 18-32 0-46-43z"/><glyph glyph-name="Imacron" unicode="Ī" horiz-adv-x="282" d="M78 0v708h126v-708h-126zm223 873v-78h-320v78h320z"/><glyph glyph-name="imacron" unicode="ī" horiz-adv-x="268" d="M74 0v480h120v-480h-120zm222 673v-78h-320v78h320z"/><glyph glyph-name="Iogonek" unicode="Į" horiz-adv-x="282" d="M78 0v708h126v-708h-13q-76-71-76-122 0-19 13.5-32.5t32.5-13.5q29 0 54 21l25-49q-48-38-100-38-42 0-72.5 24t-30.5 65q0 37 27.5 76t64.5 69h-51z"/><glyph glyph-name="iogonek" unicode="į" horiz-adv-x="268" d="M74 0v480h120v-480h-19q-76-71-76-122 0-19 13.5-32.5t32.5-13.5q29 0 54 21l25-49q-48-38-100-38-42 0-72.5 24t-30.5 65q0 37 27.5 76t64.5 69h-39zm-17 643q0 29 22 50.5t54 21.5q33 0 55.5-20.5t22.5-51.5-22.5-51.5-55.5-20.5q-32 0-54 21.5t-22 50.5z"/><glyph glyph-name="Idotaccent" unicode="İ" horiz-adv-x="282" d="M78 0v708h126v-708h-126zm-15 843q0 29 22 50.5t54 21.5q33 0 55.5-20.5t22.5-51.5-22.5-51.5-55.5-20.5q-32 0-54 21.5t-22 50.5z"/><glyph glyph-name="dotlessi" unicode="ı" horiz-adv-x="268" d="M74 0v480h120v-480h-120z"/><glyph glyph-name="Jcircumflex" unicode="Ĵ" horiz-adv-x="498" d="M426 708v-479q0-34-5-65.5t-19.5-65.5-37-59-61.5-41-90-16q-83 0-136 42t-72 114l116 33q9-35 33-55.5t57-20.5q51 0 70 35.5t19 102.5v475h126zm118 56h-114l-69 90-69-90h-112l115 144h135z"/><glyph glyph-name="jcircumflex" unicode="ĵ" horiz-adv-x="268" d="M74 480h120v-509q0-47-7.5-82t-25.5-66-53.5-47-87.5-16q-30 0-54 6l10 102q15-4 33-4 39 0 52 26.5t13 75.5v514zm242 84h-114l-69 90-69-90h-112l115 144h135z"/><glyph glyph-name="Kcommaaccent" unicode="Ķ" horiz-adv-x="689" d="M78 0v708h126v-306h3l296 306h170l-331-327 353-381h-177l-311 355h-3v-355h-126zm171-240l65 195h106l-80-195h-91z"/><glyph glyph-name="kcommaaccent" unicode="ķ" horiz-adv-x="543" d="M74 0v756h120v-478h3l182 202h154l-208-217 221-263h-159l-190 246h-3v-246h-120zm107-240l65 195h106l-80-195h-91z"/><glyph glyph-name="Lacute" unicode="Ĺ" horiz-adv-x="511" d="M78 0v708h126v-596h301v-112h-427zm15 764l99 144h136l-141-144h-94z"/><glyph glyph-name="lacute" unicode="ĺ" horiz-adv-x="268" d="M74 0v756h120v-756h-120zm0 792l99 144h136l-141-144h-94z"/><glyph glyph-name="Lcommaaccent" unicode="Ļ" horiz-adv-x="511" d="M78 0v708h126v-596h301v-112h-427zm109-240l65 195h106l-80-195h-91z"/><glyph glyph-name="lcommaaccent" unicode="ļ" horiz-adv-x="268" d="M74 0v756h120v-756h-120zm-45-240l65 195h106l-80-195h-91z"/><glyph glyph-name="Lcaron" unicode="Ľ" horiz-adv-x="511" d="M78 0v708h126v-596h301v-112h-427zm188 513l65 195h106l-80-195h-91z"/><glyph glyph-name="lcaron" unicode="ľ" horiz-adv-x="352" d="M74 0v756h120v-756h-120zm145 513l65 195h106l-80-195h-91z"/><glyph glyph-name="Ldot" unicode="Ŀ" horiz-adv-x="511" d="M78 0v708h126v-596h301v-112h-427zm210 423q0 29 22 50.5t54 21.5q33 0 55.5-20.5t22.5-51.5-22.5-51.5-55.5-20.5q-32 0-54 21.5t-22 50.5z"/><glyph glyph-name="ldot" unicode="ŀ" horiz-adv-x="391" d="M74 0v756h120v-756h-120zm163 453q0 29 22 50.5t54 21.5q33 0 55.5-20.5t22.5-51.5-22.5-51.5-55.5-20.5q-32 0-54 21.5t-22 50.5z"/><glyph glyph-name="Lslash" unicode="Ł" horiz-adv-x="511" d="M78 0v201l-70-62v110l70 62v397h126v-300l206 181v-109l-206-182v-186h301v-112h-427z"/><glyph glyph-name="lslash" unicode="ł" horiz-adv-x="268" d="M74 0v298l-69-69v109l69 69v349h120v-255l69 69v-107l-69-68v-395h-120z"/><glyph glyph-name="Nacute" unicode="Ń" horiz-adv-x="780" d="M78 0v708h167l329-530h2v530h126v-708h-160l-336 547h-2v-547h-126zm231 764l99 144h136l-141-144h-94z"/><glyph glyph-name="nacute" unicode="ń" horiz-adv-x="582" d="M72 0v480h114v-77h2q17 38 57.5 64.5t91.5 26.5q88 0 132.5-56.5t44.5-137.5v-300h-120v266q0 128-90 128-54 0-83-38.5t-29-91.5v-264h-120zm145 564l99 144h136l-141-144h-94z"/><glyph glyph-name="Ncommaaccent" unicode="Ņ" horiz-adv-x="780" d="M78 0v708h167l329-530h2v530h126v-708h-160l-336 547h-2v-547h-126zm211-240l65 195h106l-80-195h-91z"/><glyph glyph-name="ncommaaccent" unicode="ņ" horiz-adv-x="582" d="M72 0v480h114v-77h2q17 38 57.5 64.5t91.5 26.5q88 0 132.5-56.5t44.5-137.5v-300h-120v266q0 128-90 128-54 0-83-38.5t-29-91.5v-264h-120zm117-240l65 195h106l-80-195h-91z"/><glyph glyph-name="Ncaron" unicode="Ň" horiz-adv-x="780" d="M78 0v708h167l329-530h2v530h126v-708h-160l-336 547h-2v-547h-126zm130 908h114l69-90 69 90h110l-115-144h-133z"/><glyph glyph-name="ncaron" unicode="ň" horiz-adv-x="582" d="M72 0v480h114v-77h2q17 38 57.5 64.5t91.5 26.5q88 0 132.5-56.5t44.5-137.5v-300h-120v266q0 128-90 128-54 0-83-38.5t-29-91.5v-264h-120zm35 708h114l69-90 69 90h110l-115-144h-133z"/><glyph glyph-name="Omacron" unicode="Ō" horiz-adv-x="849" d="M44 356q0 168 106.5 269t272.5 101q168 0 275-101t107-269q0-165-107.5-269.5t-274.5-104.5q-165 0-272 104.5t-107 269.5zm137 0q0-114 68-187.5t175-73.5q108 0 176 73.5t68 187.5q0 111-67.5 185t-176.5 74q-108 0-175.5-74t-67.5-185zm404 517v-78h-320v78h320z"/><glyph glyph-name="omacron" unicode="ō" horiz-adv-x="610" d="M44 242q0 111 75 181.5t186 70.5 186-70.5 75-181.5q0-112-75.5-184t-185.5-72-185.5 72-75.5 184zm122 0q0-62 36-109t103-47 103 47 36 109-36 108-103 46-103-46-36-108zm299 431v-78h-320v78h320z"/><glyph glyph-name="Obreve" unicode="Ŏ" horiz-adv-x="849" d="M44 356q0 168 106.5 269t272.5 101q168 0 275-101t107-269q0-165-107.5-269.5t-274.5-104.5q-165 0-272 104.5t-107 269.5zm137 0q0-114 68-187.5t175-73.5q108 0 176 73.5t68 187.5q0 111-67.5 185t-176.5 74q-108 0-175.5-74t-67.5-185zm74 552h67q12-66 103-66 46 0 70 13t34 53h66q-7-72-52.5-108t-118.5-36q-74 0-119.5 36t-49.5 108z"/><glyph glyph-name="obreve" unicode="ŏ" horiz-adv-x="610" d="M44 242q0 111 75 181.5t186 70.5 186-70.5 75-181.5q0-112-75.5-184t-185.5-72-185.5 72-75.5 184zm122 0q0-62 36-109t103-47 103 47 36 109-36 108-103 46-103-46-36-108zm-31 466h67q12-66 103-66 46 0 70 13t34 53h66q-7-72-52.5-108t-118.5-36q-74 0-119.5 36t-49.5 108z"/><glyph glyph-name="Ohungarumlaut" unicode="Ő" horiz-adv-x="849" d="M44 356q0 168 106.5 269t272.5 101q168 0 275-101t107-269q0-165-107.5-269.5t-274.5-104.5q-165 0-272 104.5t-107 269.5zm137 0q0-114 68-187.5t175-73.5q108 0 176 73.5t68 187.5q0 111-67.5 185t-176.5 74q-108 0-175.5-74t-67.5-185zm91 408l99 144h136l-141-144h-94zm205 0l99 144h136l-141-144h-94z"/><glyph glyph-name="ohungarumlaut" unicode="ő" horiz-adv-x="610" d="M44 242q0 111 75 181.5t186 70.5 186-70.5 75-181.5q0-112-75.5-184t-185.5-72-185.5 72-75.5 184zm122 0q0-62 36-109t103-47 103 47 36 109-36 108-103 46-103-46-36-108zm-7 322l99 144h136l-141-144h-94zm205 0l99 144h136l-141-144h-94z"/><glyph glyph-name="OE" unicode="Œ" horiz-adv-x="1027" d="M455 112h55v486h-55q-276 0-276-244 0-68 24-117.5t66-75.5 87.5-37.5 98.5-11.5zm-20 596h529v-110h-328v-180h310v-106h-310v-200h346v-112h-547q-72 0-139.5 21t-125 62.5-92 111.5-34.5 159q0 95 34.5 166.5t92.5 111 124 58 140 18.5z"/><glyph glyph-name="oe" unicode="œ" horiz-adv-x="959" d="M683 494q104 0 168-67t64-193q0-21-1-32h-365q6-52 45-85t92-33q82 0 127 63l79-65q-70-96-206-96-62 0-113 24.5t-82 66.5q-31-42-81-66.5t-109-24.5q-110 0-183.5 72t-73.5 184 73.5 182 183.5 70q60 0 111-25.5t82-67.5q72 93 189 93zm-517-252q0-62 36-109t103-47 103 47 36 109-36 108-103 46-103-46-36-108zm383 46h246q0 50-29 83t-84 33q-53 0-91-33t-42-83z"/><glyph glyph-name="Racute" unicode="Ŕ" horiz-adv-x="629" d="M78 0v708h246q71 0 127.5-18.5t95-66 38.5-118.5q0-75-43-124.5t-119-66.5l189-314h-152l-164 300h-92v-300h-126zm126 403h103q152 0 152 103 0 52-41 74t-100 22h-114v-199zm20 361l99 144h136l-141-144h-94z"/><glyph glyph-name="racute" unicode="ŕ" horiz-adv-x="364" d="M72 0v480h115v-80h2q20 43 57 68.5t83 25.5q17 0 29-3v-110q-20 5-37 5-31 0-55-10t-37.5-25-22-33.5-11.5-33.5-3-27v-257h-120zm31 564l99 144h136l-141-144h-94z"/><glyph glyph-name="Rcommaaccent" unicode="Ŗ" horiz-adv-x="629" d="M78 0v708h246q71 0 127.5-18.5t95-66 38.5-118.5q0-75-43-124.5t-119-66.5l189-314h-152l-164 300h-92v-300h-126zm126 403h103q152 0 152 103 0 52-41 74t-100 22h-114v-199zm8-643l65 195h106l-80-195h-91z"/><glyph glyph-name="rcommaaccent" unicode="ŗ" horiz-adv-x="364" d="M72 0v480h115v-80h2q20 43 57 68.5t83 25.5q17 0 29-3v-110q-20 5-37 5-31 0-55-10t-37.5-25-22-33.5-11.5-33.5-3-27v-257h-120zm-44-240l65 195h106l-80-195h-91z"/><glyph glyph-name="Rcaron" unicode="Ř" horiz-adv-x="629" d="M78 0v708h246q71 0 127.5-18.5t95-66 38.5-118.5q0-75-43-124.5t-119-66.5l189-314h-152l-164 300h-92v-300h-126zm126 403h103q152 0 152 103 0 52-41 74t-100 22h-114v-199zm-80 505h114l69-90 69 90h110l-115-144h-133z"/><glyph glyph-name="rcaron" unicode="ř" horiz-adv-x="364" d="M72 0v480h115v-80h2q20 43 57 68.5t83 25.5q17 0 29-3v-110q-20 5-37 5-31 0-55-10t-37.5-25-22-33.5-11.5-33.5-3-27v-257h-120zm-43 708h114l69-90 69 90h110l-115-144h-133z"/><glyph glyph-name="Sacute" unicode="Ś" horiz-adv-x="574" d="M521 650l-82-90q-20 27-56.5 44t-73.5 17q-49 0-87-24.5t-38-72.5q0-24 8.5-40.5t30-29.5 40.5-20 56-19q35-11 57.5-19t54-25.5 50-37.5 32-52.5 13.5-72.5q0-109-73.5-167.5t-184.5-58.5q-71 0-136.5 26.5t-106.5 74.5l90 84q26-35 69-56.5t86-21.5q51 0 89.5 26t38.5 79q0 18-5 32.5t-18.5 26.5-23.5 19.5-35.5 17-36.5 13.5-44 14q-38 12-65 25t-55.5 35.5-43.5 58-15 82.5q0 101 76.5 154.5t182.5 53.5q56 0 111.5-19.5t94.5-56.5zm-288 114l99 144h136l-141-144h-94z"/><glyph glyph-name="sacute" unicode="ś" horiz-adv-x="444" d="M413 421l-78-69q-17 22-45 37t-60 15-54.5-13-22.5-39q0-25 23-37t81-26q31-7 55-16.5t48.5-25.5 38-42 13.5-59q0-82-56.5-121t-143.5-39q-57 0-110 21t-87 58l79 74q46-60 123-60 31 0 54 14t23 43q0 28-24.5 41.5t-85.5 27.5q-65 16-103.5 45.5t-38.5 90.5q0 75 56 114t135 39q54 0 103-19t77-54zm-255 143l99 144h136l-141-144h-94z"/><glyph glyph-name="Scircumflex" unicode="Ŝ" horiz-adv-x="574" d="M521 650l-82-90q-20 27-56.5 44t-73.5 17q-49 0-87-24.5t-38-72.5q0-24 8.5-40.5t30-29.5 40.5-20 56-19q35-11 57.5-19t54-25.5 50-37.5 32-52.5 13.5-72.5q0-109-73.5-167.5t-184.5-58.5q-71 0-136.5 26.5t-106.5 74.5l90 84q26-35 69-56.5t86-21.5q51 0 89.5 26t38.5 79q0 18-5 32.5t-18.5 26.5-23.5 19.5-35.5 17-36.5 13.5-44 14q-38 12-65 25t-55.5 35.5-43.5 58-15 82.5q0 101 76.5 154.5t182.5 53.5q56 0 111.5-19.5t94.5-56.5zm-27 114h-114l-69 90-69-90h-112l115 144h135z"/><glyph glyph-name="scircumflex" unicode="ŝ" horiz-adv-x="444" d="M413 421l-78-69q-17 22-45 37t-60 15-54.5-13-22.5-39q0-25 23-37t81-26q31-7 55-16.5t48.5-25.5 38-42 13.5-59q0-82-56.5-121t-143.5-39q-57 0-110 21t-87 58l79 74q46-60 123-60 31 0 54 14t23 43q0 28-24.5 41.5t-85.5 27.5q-65 16-103.5 45.5t-38.5 90.5q0 75 56 114t135 39q54 0 103-19t77-54zm5 143h-114l-69 90-69-90h-112l115 144h135z"/><glyph glyph-name="Scedilla" unicode="Ş" horiz-adv-x="574" d="M521 650l-82-90q-20 27-56.5 44t-73.5 17q-49 0-87-24.5t-38-72.5q0-24 8.5-40.5t30-29.5 40.5-20 56-19q35-11 57.5-19t54-25.5 50-37.5 32-52.5 13.5-72.5q0-100-63.5-157.5t-162.5-66.5l-33-48q8 1 19 1 105 0 105-83 0-50-41-72t-95-22q-61 0-110 26l23 48q38-20 82-20 57 0 57 41 0 36-53 36-21 0-39-6l-23 25 50 73q-65 5-123 30.5t-94 69.5l90 84q26-35 69-56.5t86-21.5q51 0 89.5 26t38.5 79q0 18-5 32.5t-18.5 26.5-23.5 19.5-35.5 17-36.5 13.5-44 14q-38 12-65 25t-55.5 35.5-43.5 58-15 82.5q0 101 76.5 154.5t182.5 53.5q56 0 111.5-19.5t94.5-56.5z"/><glyph glyph-name="scedilla" unicode="ş" horiz-adv-x="444" d="M413 421l-78-69q-17 22-45 37t-60 15-54.5-13-22.5-39q0-25 23-37t81-26q31-7 55-16.5t48.5-25.5 38-42 13.5-59q0-75-47.5-113.5t-123.5-45.5l-36-51q8 1 19 1 105 0 105-83 0-50-41-72t-95-22q-61 0-110 26l23 48q38-20 82-20 57 0 57 41 0 36-53 36-21 0-39-6l-23 25 53 78q-108 10-168 77l79 74q46-60 123-60 31 0 54 14t23 43q0 28-24.5 41.5t-85.5 27.5q-65 16-103.5 45.5t-38.5 90.5q0 75 56 114t135 39q54 0 103-19t77-54z"/><glyph glyph-name="Scaron" unicode="Š" horiz-adv-x="574" d="M521 650l-82-90q-20 27-56.5 44t-73.5 17q-49 0-87-24.5t-38-72.5q0-24 8.5-40.5t30-29.5 40.5-20 56-19q35-11 57.5-19t54-25.5 50-37.5 32-52.5 13.5-72.5q0-109-73.5-167.5t-184.5-58.5q-71 0-136.5 26.5t-106.5 74.5l90 84q26-35 69-56.5t86-21.5q51 0 89.5 26t38.5 79q0 18-5 32.5t-18.5 26.5-23.5 19.5-35.5 17-36.5 13.5-44 14q-38 12-65 25t-55.5 35.5-43.5 58-15 82.5q0 101 76.5 154.5t182.5 53.5q56 0 111.5-19.5t94.5-56.5zm-393 258h114l69-90 69 90h110l-115-144h-133z"/><glyph glyph-name="scaron" unicode="š" horiz-adv-x="444" d="M413 421l-78-69q-17 22-45 37t-60 15-54.5-13-22.5-39q0-25 23-37t81-26q31-7 55-16.5t48.5-25.5 38-42 13.5-59q0-82-56.5-121t-143.5-39q-57 0-110 21t-87 58l79 74q46-60 123-60 31 0 54 14t23 43q0 28-24.5 41.5t-85.5 27.5q-65 16-103.5 45.5t-38.5 90.5q0 75 56 114t135 39q54 0 103-19t77-54zm-366 287h114l69-90 69 90h110l-115-144h-133z"/><glyph glyph-name="Tcommaaccent" unicode="Ţ" horiz-adv-x="568" d="M221 0v598h-217v110h560v-110h-217v-598h-126zm-42-240l65 195h106l-80-195h-91z"/><glyph glyph-name="tcommaaccent" unicode="ţ" horiz-adv-x="340" d="M87 384h-84v96h84v139h118v-139h120v-96h-120v-223q0-36 13-55t50-19q31 0 51 10l4-94q-34-13-80-13-88 0-122 45.5t-34 124.5v224zm11-624l65 195h106l-80-195h-91z"/><glyph glyph-name="Tcaron" unicode="Ť" horiz-adv-x="568" d="M221 0v598h-217v110h560v-110h-217v-598h-126zm-116 908h114l69-90 69 90h110l-115-144h-133z"/><glyph glyph-name="tcaron" unicode="ť" horiz-adv-x="360" d="M87 384h-84v96h84v139h118v-139h120v-96h-120v-223q0-36 13-55t50-19q31 0 51 10l4-94q-34-13-80-13-88 0-122 45.5t-34 124.5v224zm145 152l65 195h106l-80-195h-91z"/><glyph glyph-name="Tbar" unicode="Ŧ" horiz-adv-x="568" d="M506 507v-75h-159v-432h-126v432h-149v75h149v91h-217v110h560v-110h-217v-91h159z"/><glyph glyph-name="tbar" unicode="ŧ" horiz-adv-x="340" d="M305 294v-75h-100v-58q0-36 13-55t50-19q31 0 51 10l4-94q-34-13-80-13-88 0-122 45.5t-34 124.5v59h-75v75h75v90h-84v96h84v139h118v-139h120v-96h-120v-90h100z"/><glyph glyph-name="Utilde" unicode="Ũ" horiz-adv-x="714" d="M642 708v-448q0-126-80.5-202t-204.5-76-204.5 76-80.5 202v448h126v-443q0-71 38-120.5t121-49.5 121 49.5 38 120.5v443h126zm-399 60h-66q22 127 112 127 36 0 79-18 45-19 65-19 33 0 46 42h66q-22-127-112-127-37 0-82 20-39 18-62 18-32 0-46-43z"/><glyph glyph-name="utilde" unicode="ũ" horiz-adv-x="582" d="M510 480v-480h-114v77h-2q-17-38-57.5-64.5t-91.5-26.5q-88 0-132.5 56.5t-44.5 137.5v300h120v-266q0-128 90-128 54 0 83 38.5t29 91.5v264h120zm-337 88h-66q22 127 112 127 36 0 79-18 45-19 65-19 33 0 46 42h66q-22-127-112-127-37 0-82 20-39 18-62 18-32 0-46-43z"/><glyph glyph-name="Umacron" unicode="Ū" horiz-adv-x="714" d="M642 708v-448q0-126-80.5-202t-204.5-76-204.5 76-80.5 202v448h126v-443q0-71 38-120.5t121-49.5 121 49.5 38 120.5v443h126zm-121 165v-78h-320v78h320z"/><glyph glyph-name="umacron" unicode="ū" horiz-adv-x="582" d="M510 480v-480h-114v77h-2q-17-38-57.5-64.5t-91.5-26.5q-88 0-132.5 56.5t-44.5 137.5v300h120v-266q0-128 90-128 54 0 83 38.5t29 91.5v264h120zm-60 193v-78h-320v78h320z"/><glyph glyph-name="Ubreve" unicode="Ŭ" horiz-adv-x="714" d="M642 708v-448q0-126-80.5-202t-204.5-76-204.5 76-80.5 202v448h126v-443q0-71 38-120.5t121-49.5 121 49.5 38 120.5v443h126zm-456 200h67q12-66 103-66 46 0 70 13t34 53h66q-7-72-52.5-108t-118.5-36q-74 0-119.5 36t-49.5 108z"/><glyph glyph-name="ubreve" unicode="ŭ" horiz-adv-x="582" d="M510 480v-480h-114v77h-2q-17-38-57.5-64.5t-91.5-26.5q-88 0-132.5 56.5t-44.5 137.5v300h120v-266q0-128 90-128 54 0 83 38.5t29 91.5v264h120zm-391 228h67q12-66 103-66 46 0 70 13t34 53h66q-7-72-52.5-108t-118.5-36q-74 0-119.5 36t-49.5 108z"/><glyph glyph-name="Uring" unicode="Ů" horiz-adv-x="714" d="M642 708v-448q0-126-80.5-202t-204.5-76-204.5 76-80.5 202v448h126v-443q0-71 38-120.5t121-49.5 121 49.5 38 120.5v443h126zm-176 147q0-44-30-73t-75-29q-44 0-74.5 29t-30.5 72q0 44 30 73.5t75 29.5 75-29 30-73zm-46 0q0 25-17 41t-42 16-42-16.5-17-41.5q0-24 17-40t42-16 42 16 17 41z"/><glyph glyph-name="uring" unicode="ů" horiz-adv-x="582" d="M510 480v-480h-114v77h-2q-17-38-57.5-64.5t-91.5-26.5q-88 0-132.5 56.5t-44.5 137.5v300h120v-266q0-128 90-128 54 0 83 38.5t29 91.5v264h120zm-117 175q0-44-30-73t-75-29q-44 0-74.5 29t-30.5 72q0 44 30 73.5t75 29.5 75-29 30-73zm-46 0q0 25-17 41t-42 16-42-16.5-17-41.5q0-24 17-40t42-16 42 16 17 41z"/><glyph glyph-name="Uhungarumlaut" unicode="Ű" horiz-adv-x="714" d="M642 708v-448q0-126-80.5-202t-204.5-76-204.5 76-80.5 202v448h126v-443q0-71 38-120.5t121-49.5 121 49.5 38 120.5v443h126zm-439 56l99 144h136l-141-144h-94zm205 0l99 144h136l-141-144h-94z"/><glyph glyph-name="uhungarumlaut" unicode="ű" horiz-adv-x="582" d="M510 480v-480h-114v77h-2q-17-38-57.5-64.5t-91.5-26.5q-88 0-132.5 56.5t-44.5 137.5v300h120v-266q0-128 90-128 54 0 83 38.5t29 91.5v264h120zm-376 84l99 144h136l-141-144h-94zm205 0l99 144h136l-141-144h-94z"/><glyph glyph-name="Uogonek" unicode="Ų" horiz-adv-x="714" d="M447-147l25-49q-48-38-100-38-42 0-72.5 24t-30.5 65q0 60 72 128-118 5-193.5 80t-75.5 197v448h126v-443q0-71 38-120.5t121-49.5 121 49.5 38 120.5v443h126v-448q0-112-65-185.5t-169-88.5q-61-63-61-108 0-19 13.5-32.5t32.5-13.5q29 0 54 21z"/><glyph glyph-name="uogonek" unicode="ų" horiz-adv-x="582" d="M477-147l25-49q-48-38-100-38-42 0-72.5 24t-30.5 65q0 38 29.5 79t67.5 70v73h-2q-17-38-57.5-64.5t-91.5-26.5q-88 0-132.5 56.5t-44.5 137.5v300h120v-266q0-128 90-128 54 0 83 38.5t29 91.5v264h120v-480h-57q-76-71-76-122 0-19 13.5-32.5t32.5-13.5q29 0 54 21z"/><glyph glyph-name="Wcircumflex" unicode="Ŵ" horiz-adv-x="1004" d="M213 0l-207 708h138l137-520h2l156 520h130l153-520h2l140 520h134l-207-708h-122l-166 531h-2l-166-531h-122zm472 764h-114l-69 90-69-90h-112l115 144h135z"/><glyph glyph-name="wcircumflex" unicode="ŵ" horiz-adv-x="804" d="M171 0l-167 480h130l100-344h2l103 344h128l104-344h2l102 344h125l-166-480h-122l-109 336h-2l-108-336h-122zm415 564h-114l-69 90-69-90h-112l115 144h135z"/><glyph glyph-name="Ycircumflex" unicode="Ŷ" horiz-adv-x="622" d="M249 0v307l-266 401h154l178-298 180 298h146l-266-401v-307h-126zm248 764h-114l-69 90-69-90h-112l115 144h135z"/><glyph glyph-name="ycircumflex" unicode="ŷ" horiz-adv-x="513" d="M206 0l-206 480h133l134-349h2l119 349h125l-227-583q-28-71-67.5-104t-114.5-33q-33 0-62 7l10 104q22-7 45-7 36 0 52 16.5t33 58.5zm242 564h-114l-69 90-69-90h-112l115 144h135z"/><glyph glyph-name="Ydieresis" unicode="Ÿ" horiz-adv-x="622" d="M249 0v307l-266 401h154l178-298 180 298h146l-266-401v-307h-126zm-104 844q0 28 20.5 49t50.5 21q31 0 52-20t21-50-21-50-52-20q-30 0-50.5 21t-20.5 49zm196 0q0 28 20.5 49t50.5 21q31 0 52-20t21-50-21-50-52-20q-30 0-50.5 21t-20.5 49z"/><glyph glyph-name="Zacute" unicode="Ź" horiz-adv-x="611" d="M35 0v114l385 484h-379v110h529v-114l-387-482h393v-112h-541zm199 764l99 144h136l-141-144h-94z"/><glyph glyph-name="zacute" unicode="ź" horiz-adv-x="482" d="M34 0v106l259 278h-247v96h390v-106l-260-276h272v-98h-414zm140 564l99 144h136l-141-144h-94z"/><glyph glyph-name="Zdotaccent" unicode="Ż" horiz-adv-x="611" d="M35 0v114l385 484h-379v110h529v-114l-387-482h393v-112h-541zm197 843q0 29 22 50.5t54 21.5q33 0 55.5-20.5t22.5-51.5-22.5-51.5-55.5-20.5q-32 0-54 21.5t-22 50.5z"/><glyph glyph-name="zdotaccent" unicode="ż" horiz-adv-x="482" d="M34 0v106l259 278h-247v96h390v-106l-260-276h272v-98h-414zm132 643q0 29 22 50.5t54 21.5q33 0 55.5-20.5t22.5-51.5-22.5-51.5-55.5-20.5q-32 0-54 21.5t-22 50.5z"/><glyph glyph-name="Zcaron" unicode="Ž" horiz-adv-x="611" d="M35 0v114l385 484h-379v110h529v-114l-387-482h393v-112h-541zm91 908h114l69-90 69 90h110l-115-144h-133z"/><glyph glyph-name="zcaron" unicode="ž" horiz-adv-x="482" d="M34 0v106l259 278h-247v96h390v-106l-260-276h272v-98h-414zm31 708h114l69-90 69 90h110l-115-144h-133z"/><glyph glyph-name="florin" unicode="ƒ" horiz-adv-x="610" d="M480 426v-90h-138l-57-288q-19-96-64-141.5t-123-45.5q-56 0-102 24l45 92q20-14 47-14 36 0 53 26t27 78l53 269h-113v90h131l22 111q17 85 58 134t122 49q60 0 117-31l-46-93q-27 16-55 16-21 0-35.5-8.5t-23.5-26-13-30.5-9-37l-18-84h122z"/><glyph glyph-name="Scommaaccent" unicode="Ș" horiz-adv-x="574" d="M521 650l-82-90q-20 27-56.5 44t-73.5 17q-49 0-87-24.5t-38-72.5q0-24 8.5-40.5t30-29.5 40.5-20 56-19q35-11 57.5-19t54-25.5 50-37.5 32-52.5 13.5-72.5q0-109-73.5-167.5t-184.5-58.5q-71 0-136.5 26.5t-106.5 74.5l90 84q26-35 69-56.5t86-21.5q51 0 89.5 26t38.5 79q0 18-5 32.5t-18.5 26.5-23.5 19.5-35.5 17-36.5 13.5-44 14q-38 12-65 25t-55.5 35.5-43.5 58-15 82.5q0 101 76.5 154.5t182.5 53.5q56 0 111.5-19.5t94.5-56.5zm-344-890l65 195h106l-80-195h-91z"/><glyph glyph-name="scommaaccent" unicode="ș" horiz-adv-x="444" d="M413 421l-78-69q-17 22-45 37t-60 15-54.5-13-22.5-39q0-25 23-37t81-26q31-7 55-16.5t48.5-25.5 38-42 13.5-59q0-82-56.5-121t-143.5-39q-57 0-110 21t-87 58l79 74q46-60 123-60 31 0 54 14t23 43q0 28-24.5 41.5t-85.5 27.5q-65 16-103.5 45.5t-38.5 90.5q0 75 56 114t135 39q54 0 103-19t77-54zm-296-661l65 195h106l-80-195h-91z"/><glyph glyph-name="uni021A" unicode="Ț" horiz-adv-x="568" d="M221 0v598h-217v110h560v-110h-217v-598h-126zm-42-240l65 195h106l-80-195h-91z"/><glyph glyph-name="uni021B" unicode="ț" horiz-adv-x="340" d="M87 384h-84v96h84v139h118v-139h120v-96h-120v-223q0-36 13-55t50-19q31 0 51 10l4-94q-34-13-80-13-88 0-122 45.5t-34 124.5v224zm11-624l65 195h106l-80-195h-91z"/><glyph glyph-name="circumflex" unicode="ˆ" d="M312 564h-114l-69 90-69-90h-112l115 144h135z"/><glyph glyph-name="caron" unicode="ˇ" d="M-51 708h114l69-90 69 90h110l-115-144h-133z"/><glyph glyph-name="uni02C9" unicode="ˉ" d="M290 873v-78h-320v78h320z"/><glyph glyph-name="breve" unicode="˘" d="M-40 708h67q12-66 103-66 46 0 70 13t34 53h66q-7-72-52.5-108t-118.5-36q-74 0-119.5 36t-49.5 108z"/><glyph glyph-name="dotaccent" unicode="˙" d="M54 643q0 29 22 50.5t54 21.5q33 0 55.5-20.5t22.5-51.5-22.5-51.5-55.5-20.5q-32 0-54 21.5t-22 50.5z"/><glyph glyph-name="ring" unicode="˚" d="M235 655q0-44-30-73t-75-29q-44 0-74.5 29t-30.5 72q0 44 30 73.5t75 29.5 75-29 30-73zm-46 0q0 25-17 41t-42 16-42-16.5-17-41.5q0-24 17-40t42-16 42 16 17 41z"/><glyph glyph-name="ogonek" unicode="˛" d="M177-147l25-49q-48-38-100-38-42 0-72.5 24t-30.5 65q0 39 30.5 80t69.5 71h61q-30-26-56.5-62.5t-26.5-65.5q0-19 13.5-32.5t32.5-13.5q30 0 54 21z"/><glyph glyph-name="tilde" unicode="˜" d="M12 568h-66q22 127 112 127 36 0 79-18 45-19 65-19 33 0 46 42h66q-22-127-112-127-37 0-82 20-39 18-62 18-32 0-46-43z"/><glyph glyph-name="hungarumlaut" unicode="˝" d="M-20 564l99 144h136l-141-144h-94zm205 0l99 144h136l-141-144h-94z"/><glyph glyph-name="uni0394" unicode="Δ" horiz-adv-x="685" d="M677 0h-669l270 712h115zm-158 104l-185 477-173-477h358z"/><glyph glyph-name="uni03A9" unicode="Ω" horiz-adv-x="759" d="M701 0h-276v189q74 15 115.5 72.5t41.5 135.5q0 91-58.5 155t-148.5 64q-92 0-150.5-63.5t-58.5-156.5q0-79 39.5-133.5t114.5-73.5v-189h-274v106h172v32q-87 27-129.5 98t-42.5 168q0 137 95 227t232 90q139 0 233.5-88t94.5-226q0-100-42-171.5t-131-97.5v-32h173v-106z"/><glyph glyph-name="uni03BC" unicode="μ" horiz-adv-x="574" d="M68 480h120v-243q0-26 2.5-45.5t10-44 26.5-38 49-13.5q56 0 83 34.5t27 87.5v262h120v-480h-114v77h-2q-41-89-137-89-45 0-65 24v-240h-120v708z"/><glyph glyph-name="pi" unicode="π" horiz-adv-x="593" d="M580 13q-43-20-95-20-62 0-83 33.5t-21 97.5v254h-183v-378h-117v378h-70v102h566v-102h-79v-237q0-18 1.5-28.5t10.5-20 26-9.5q21 0 44 10v-80z"/><glyph glyph-name="endash" unicode="–" horiz-adv-x="400" d="M370 292v-92h-340v92h340z"/><glyph glyph-name="emdash" unicode="—" horiz-adv-x="600" d="M570 292v-92h-540v92h540z"/><glyph glyph-name="quoteleft" unicode="‘" horiz-adv-x="270" d="M228 708l-70-264h-116l85 264h101z"/><glyph glyph-name="quoteright" unicode="’" horiz-adv-x="270" d="M42 444l70 264h116l-85-264h-101z"/><glyph glyph-name="quotesinglbase" unicode="‚" horiz-adv-x="270" d="M42-126l70 264h116l-85-264h-101z"/><glyph glyph-name="quotedblleft" unicode="“" horiz-adv-x="465" d="M228 708l-70-264h-116l85 264h101zm195 0l-70-264h-116l85 264h101z"/><glyph glyph-name="quotedblright" unicode="”" horiz-adv-x="465" d="M237 444l70 264h116l-85-264h-101zm-195 0l70 264h116l-85-264h-101z"/><glyph glyph-name="quotedblbase" unicode="„" horiz-adv-x="465" d="M237-126l70 264h116l-85-264h-101zm-195 0l70 264h116l-85-264h-101z"/><glyph glyph-name="dagger" unicode="†" horiz-adv-x="593" d="M353 708v-203h199v-96h-199v-535h-114v535h-198v96h198v203h114z"/><glyph glyph-name="daggerdbl" unicode="‡" horiz-adv-x="593" d="M353 708v-185h193v-96h-193v-271h193v-96h-193v-186h-114v186h-192v96h192v271h-192v96h192v185h114z"/><glyph glyph-name="bullet" unicode="•" horiz-adv-x="500" d="M73 354q0 74 51.5 125.5t125.5 51.5 125.5-51.5 51.5-125.5-51.5-125.5-125.5-51.5-125.5 51.5-51.5 125.5z"/><glyph glyph-name="ellipsis" unicode="…" horiz-adv-x="1000" d="M87 70q0 32 23.5 55t56.5 23 56.5-22 23.5-54-23.5-55-56.5-23q-32 0-56 22t-24 54zm333 0q0 32 23.5 55t56.5 23 56.5-22 23.5-54-23.5-55-56.5-23q-32 0-56 22t-24 54zm333 0q0 32 23.5 55t56.5 23 56.5-22 23.5-54-23.5-55-56.5-23q-32 0-56 22t-24 54z"/><glyph glyph-name="perthousand" unicode="‰" horiz-adv-x="1230" d="M443 165q0 73 51.5 124.5t124.5 51.5 125-51.5 52-124.5-52-125-125-52-124.5 52-51.5 125zm90 0q0-38 24.5-62.5t61.5-24.5 62 25 25 62-24.5 61.5-62.5 24.5q-37 0-61.5-24.5t-24.5-61.5zm306 0q0 73 51.5 124.5t124.5 51.5 125-51.5 52-124.5-52-125-125-52-124.5 52-51.5 125zm90 0q0-38 24.5-62.5t61.5-24.5 62 25 25 62-24.5 61.5-62.5 24.5q-37 0-61.5-24.5t-24.5-61.5zm-890 379q0 73 51.5 124.5t124.5 51.5 125-51.5 52-124.5-52-125-125-52-124.5 52-51.5 125zm90 0q0-38 24.5-62.5t61.5-24.5 62 24.5 25 62.5q0 37-24.5 61.5t-62.5 24.5q-37 0-61.5-24t-24.5-62zm37-538l416 734 83-38-416-734z"/><glyph glyph-name="guilsinglleft" unicode="‹" horiz-adv-x="296" d="M257 421l-115-173 116-175-76-51-152 226 152 224z"/><glyph glyph-name="guilsinglright" unicode="›" horiz-adv-x="296" d="M39 73l115 173-116 175 76 51 152-226-152-224z"/><glyph glyph-name="fraction" unicode="⁄" horiz-adv-x="100" d="M-214 6l416 734 78-38-416-734z"/><glyph glyph-name="Euro" unicode="€" horiz-adv-x="610" d="M543 121l41-96q-67-43-176-43-129 0-206 67t-103 173h-84l28 86h45q-1 15-1 44 0 27 3 48h-72l30 86h55q29 110 114 175t203 65q97 0 160-33l-38-100q-46 28-128 28-63 0-116.5-36t-73.5-99h288l-28-86h-279q-3-21-3-49 0-30 2-43h256l-27-86h-214q14-58 67-96t126-38q76 0 131 33z"/><glyph glyph-name="afii61289" unicode="ℓ" horiz-adv-x="500" d="M443 49q-72-63-158-63-71 0-112 38.5t-41 102.5v64l-56-52h-2l-42 63 99 85v244q0 83 47 136.5t118 53.5q62 0 99.5-39t37.5-104q0-146-185-310v-122q0-39 19-56.5t46-17.5q41 0 88 38h2zm-105 521q0 31-12 52t-31 21q-20 0-33.5-24.5t-13.5-65.5v-185q90 99 90 202z"/><glyph glyph-name="trademark" unicode="™" horiz-adv-x="1000" d="M162 296v322h-122v90h346v-90h-122v-322h-102zm303 0v412h142l98-268 98 268h142v-412h-102v268h-2l-101-268h-70l-101 268h-2v-268h-102z"/><glyph glyph-name="Omega" unicode="Ω" horiz-adv-x="759" d="M701 0h-276v189q74 15 115.5 72.5t41.5 135.5q0 91-58.5 155t-148.5 64q-92 0-150.5-63.5t-58.5-156.5q0-79 39.5-133.5t114.5-73.5v-189h-274v106h172v32q-87 27-129.5 98t-42.5 168q0 137 95 227t232 90q139 0 233.5-88t94.5-226q0-100-42-171.5t-131-97.5v-32h173v-106z"/><glyph glyph-name="estimated" unicode="℮" horiz-adv-x="604" d="M561 259h-404v-181q59-59 145-59 122 0 193 120l35-21q-46-72-98-103.5t-130-31.5q-115 0-186.5 79t-71.5 197q0 119 71 197.5t187 78.5q115 0 186.5-77t72.5-199zm-404 36h291v145q-63 60-147 60t-144-60v-145z"/><glyph glyph-name="partialdiff" unicode="∂" horiz-adv-x="556" d="M514 358q0-56-6-104.5t-23.5-99-45-86.5-73.5-58.5-107-22.5q-98 0-158.5 64.5t-60.5 163.5q0 97 60 159t156 62q77 0 143-55v28q1 38-6.5 75.5t-23.5 72-47.5 56-73.5 21.5q-61 0-122-49l-59 70q86 66 175 66 74 0 129-31.5t85-85 44-115 14-131.5zm-116-94l-1 25q-57 64-126 64-59 0-90.5-41.5t-31.5-102.5q0-59 28.5-98.5t85.5-39.5q65 0 101 61.5t34 131.5z"/><glyph glyph-name="Delta" unicode="∆" horiz-adv-x="685" d="M677 0h-669l270 712h115zm-158 104l-185 477-173-477h358z"/><glyph glyph-name="product" unicode="∏" horiz-adv-x="741" d="M679-214h-114v897h-389v-897h-114v1000h617v-1000z"/><glyph glyph-name="summation" unicode="∑" horiz-adv-x="648" d="M624-214h-599v89l303 417-290 405v89h573v-103h-422l275-390-293-404h453v-103z"/><glyph glyph-name="minus" unicode="−" horiz-adv-x="666" d="M62 354h542v-102h-542v102z"/><glyph glyph-name="uni2215" unicode="∕" horiz-adv-x="100" d="M-214 6l416 734 78-38-416-734z"/><glyph glyph-name="uni2219" unicode="∙" d="M50 291q0 32 23.5 55t56.5 23 56.5-22 23.5-54-23.5-55-56.5-23q-32 0-56 22t-24 54z"/><glyph glyph-name="radical" unicode="√" horiz-adv-x="537" d="M549 786l-211-1000h-106l-152 317-51-25-41 90 148 68 129-273 168 823h116z"/><glyph glyph-name="infinity" unicode="∞" horiz-adv-x="815" d="M770 263q0-78-46-130t-123-52q-56 0-100.5 29.5t-92.5 82.5q-27-28-42.5-43t-40.5-33.5-51.5-26.5-57.5-8q-77 0-124 51t-47 129q0 77 45.5 128t121.5 51q59 0 103.5-31t92.5-88q48 57 92 88.5t102 31.5q76 0 122-51t46-128zm-90-3q0 37-21.5 61.5t-58.5 24.5q-55 0-135-87 74-82 138-82 36 0 56.5 23.5t20.5 59.5zm-330-1q-81 86-138 86-34 0-55.5-25t-21.5-60q0-37 21.5-59.5t58.5-22.5q63 0 135 81z"/><glyph glyph-name="integral" unicode="∫" horiz-adv-x="611" d="M486 709q0-23-15-37.5t-37-14.5q-27 0-40 18.5t-19 36.5-17 18q-16 0-16-26 0-20 2-61t2-61v-589q0-43-5.5-75.5t-19.5-65-44-50-75-17.5q-42 0-76.5 18.5t-34.5 57.5q0 23 15.5 38t37.5 15q21 0 34-11.5t16.5-25 9-25 14.5-11.5q4 0 7.5 2t5 5 3 6.5 1.5 9v23.5q0 17-2 51t-2 51v506q0 10-.5 39t0 43.5 1.5 42.5 5 43.5 10.5 38 17.5 35 26 25.5 36.5 18.5 48.5 5.5q41 0 75.5-19.5t34.5-57.5z"/><glyph glyph-name="approxequal" unicode="≈" horiz-adv-x="666" d="M602 451q-8-74-43.5-123t-105.5-49q-47 0-136 35-94 34-117 34-26 0-42.5-20.5t-21.5-48.5h-71q7 72 40 118 38 55 106 55 45 0 130-33 91-33 128-33 26 0 41.5 18.5t20.5 46.5h71zm-2-208q-8-75-43-123.5t-105-48.5q-45 0-136 35-92 34-118 34t-42.5-20.5-21.5-47.5h-71q7 72 43 122t103 50q45 0 130-33 91-33 128-33 26 0 41.5 18.5t20.5 46.5h71z"/><glyph glyph-name="notequal" unicode="≠" horiz-adv-x="666" d="M586 162h-264l-74-144-88 45 50 99h-130v102h181l38 78h-219v102h270l72 143 90-44-51-99h125v-102h-176l-38-78h214v-102z"/><glyph glyph-name="lessequal" unicode="≤" horiz-adv-x="666" d="M586 144l-506 170v108l506 177v-113l-359-118 359-112v-112zm0-140h-506v107h506v-107z"/><glyph glyph-name="greaterequal" unicode="≥" horiz-adv-x="666" d="M80 144v112l359 112-359 118v113l506-177v-108zm0-140v107h506v-107h-506z"/><glyph glyph-name="lozenge" unicode="◊" horiz-adv-x="593" d="M524 356l-178-391h-100l-177 391 177 391h100zm-109 0l-119 285-118-285 118-286z"/><glyph glyph-name="uniF8FF" unicode="" horiz-adv-x="512" d="M222 117h56v67h-56v-67zm3 117h46q0 52 6 72 6 19 43 52 37 34 50 60t13 60q0 59-35 95t-89 36q-56 0-92-34t-43-103l50-8q11 95 82 95 31 0 53.5-24.5t22.5-60.5q0-20-9.5-37t-40.5-46q-31-31-46-59-13-25-13-81zm237-184h-412v617h412v-617zm50 668h-512v-718h512v718z"/><glyph glyph-name="ydieresis.sc" horiz-adv-x="510" d="M194 0v221l-202 321h143l123-219 122 219h138l-202-321v-221h-122zm-106 674q0 28 20.5 49t50.5 21q31 0 52-20t21-50-21-50-52-20q-30 0-50.5 21t-20.5 49zm196 0q0 28 20.5 49t50.5 21q31 0 52-20t21-50-21-50-52-20q-30 0-50.5 21t-20.5 49z"/><glyph glyph-name="n.sc" horiz-adv-x="634" d="M76 0v542h148l215-374h2v374h117v-542h-148l-215 375h-2v-375h-117z"/><glyph glyph-name="umacron.sc" horiz-adv-x="595" d="M525 542v-339q0-100-65-158.5t-163-58.5-162.5 58.5-64.5 158.5v339h122v-330q0-52 27-84t78-32q52 0 79 32t27 84v330h122zm-69 161v-78h-320v78h320z"/><glyph glyph-name="ohungarumlaut.sc" horiz-adv-x="684" d="M44 273q0 127 84.5 205t212.5 78q130 0 214.5-77.5t84.5-205.5q0-126-85-206.5t-214-80.5q-127 0-212 80.5t-85 206.5zm132 0q0-80 45.5-127.5t119.5-47.5q75 0 120.5 47.5t45.5 127.5q0 77-45.5 125.5t-120.5 48.5q-74 0-119.5-48.5t-45.5-125.5zm21 321l99 144h136l-141-144h-94zm205 0l99 144h136l-141-144h-94z"/><glyph glyph-name="iogonek.sc" horiz-adv-x="274" d="M76 0v542h122v-542h-122zm139-153l25-49q-48-38-100-38-42 0-72.5 24t-30.5 65q0 39 30.5 80t69.5 71h61q-30-26-56.5-62.5t-26.5-65.5q0-19 13.5-32.5t32.5-13.5q29 0 54 21z"/><glyph glyph-name="p.sc" horiz-adv-x="500" d="M76 0v542h184q100 0 155-42t55-121q0-84-56-129.5t-157-45.5h-62v-204h-119zm119 300h52q101 0 101 75 0 68-93 68h-60v-143z"/><glyph glyph-name="macron.sc" d="M290 703v-78h-320v78h320z"/><glyph glyph-name="ugrave.sc" horiz-adv-x="595" d="M525 542v-339q0-100-65-158.5t-163-58.5-162.5 58.5-64.5 158.5v339h122v-330q0-52 27-84t78-32q52 0 79 32t27 84v330h122zm-271 196l99-144h-94l-141 144h136z"/><glyph glyph-name="oe.sc" horiz-adv-x="819" d="M761 542v-101h-252v-114h239v-96h-239v-127h265v-104h-432q-128 0-212 74.5t-84 197.5q0 125 83.5 197.5t212.5 72.5h419zm-583-270q0-78 44.5-120t119.5-42h45v324h-45q-75 0-119.5-43.5t-44.5-118.5z"/><glyph glyph-name="udieresis.sc" horiz-adv-x="595" d="M525 542v-339q0-100-65-158.5t-163-58.5-162.5 58.5-64.5 158.5v339h122v-330q0-52 27-84t78-32q52 0 79 32t27 84v330h122zm-396 132q0 28 20.5 49t50.5 21q31 0 52-20t21-50-21-50-52-20q-30 0-50.5 21t-20.5 49zm196 0q0 28 20.5 49t50.5 21q31 0 52-20t21-50-21-50-52-20q-30 0-50.5 21t-20.5 49z"/><glyph glyph-name="grave.sc" d="M78 738l99-144h-94l-141 144h136z"/><glyph glyph-name="hungarumlaut.cap" d="M-20 764l99 144h136l-141-144h-94zm205 0l99 144h136l-141-144h-94z"/><glyph glyph-name="otilde.sc" horiz-adv-x="684" d="M44 273q0 127 84.5 205t212.5 78q130 0 214.5-77.5t84.5-205.5q0-126-85-206.5t-214-80.5q-127 0-212 80.5t-85 206.5zm132 0q0-80 45.5-127.5t119.5-47.5q75 0 120.5 47.5t45.5 127.5q0 77-45.5 125.5t-120.5 48.5q-74 0-119.5-48.5t-45.5-125.5zm46 325h-66q11 58 32 88 29 39 80 39 36 0 79-18 45-19 65-19 33 0 46 42h66q-22-127-112-127-37 0-82 20-39 18-62 18-32 0-46-43z"/><glyph glyph-name="imacron.sc" horiz-adv-x="274" d="M76 0v542h122v-542h-122zm223 703v-78h-320v78h320z"/><glyph glyph-name="ocircumflex.sc" horiz-adv-x="684" d="M44 273q0 127 84.5 205t212.5 78q130 0 214.5-77.5t84.5-205.5q0-126-85-206.5t-214-80.5q-127 0-212 80.5t-85 206.5zm132 0q0-80 45.5-127.5t119.5-47.5q75 0 120.5 47.5t45.5 127.5q0 77-45.5 125.5t-120.5 48.5q-74 0-119.5-48.5t-45.5-125.5zm346 321h-114l-69 90-69-90h-112l115 144h135z"/><glyph glyph-name="perthousand.sc" horiz-adv-x="1051" d="M402 129q0 59 42 100.5t101 41.5 100.5-41.5 41.5-100.5-41.5-100.5-100.5-41.5-101 41.5-42 100.5zm201 0q0 25-16.5 41t-41.5 16-41.5-16-16.5-41 16.5-41.5 41.5-16.5 41.5 16.5 16.5 41.5zm-565 280q0 59 42 100.5t100 41.5 100-41.5 42-100.5-41.5-100-100.5-41-100.5 41-41.5 100zm200 0q0 25-16.5 41t-41.5 16-41.5-16-16.5-41 16.5-41.5 41.5-16.5 41.5 16.5 16.5 41.5zm494-280q0 59 42 100.5t101 41.5 100.5-41.5 41.5-100.5-41.5-100.5-100.5-41.5-101 41.5-42 100.5zm201 0q0 25-16.5 41t-41.5 16-41.5-16-16.5-41 16.5-41.5 41.5-16.5 41.5 16.5 16.5 41.5zm-768-118l311 546 78-39-311-546z"/><glyph glyph-name="napostrophe.sc" horiz-adv-x="730" d="M172 0v542h148l215-374h2v374h117v-542h-148l-215 375h-2v-375h-117zm-200 347l65 195h106l-80-195h-91z"/><glyph glyph-name="ij.sc" horiz-adv-x="686" d="M76 0v542h122v-542h-122zm544 542v-370q0-33-7.5-63t-25-59-53-46.5-85.5-17.5q-127 0-168 134l113 32q17-56 54-56 27 0 38.5 19.5t11.5 61.5v365h122z"/><glyph glyph-name="percent.sc" horiz-adv-x="725" d="M402 129q0 59 42 100.5t101 41.5 100.5-41.5 41.5-100.5-41.5-100.5-100.5-41.5-101 41.5-42 100.5zm201 0q0 25-16.5 41t-41.5 16-41.5-16-16.5-41 16.5-41.5 41.5-16.5 41.5 16.5 16.5 41.5zm-565 280q0 59 42 100.5t100 41.5 100-41.5 42-100.5-41.5-100-100.5-41-100.5 41-41.5 100zm200 0q0 25-16.5 41t-41.5 16-41.5-16-16.5-41 16.5-41.5 41.5-16.5 41.5 16.5 16.5 41.5zm-73-398l311 546 78-39-311-546z"/><glyph glyph-name="obreve.sc" horiz-adv-x="684" d="M44 273q0 127 84.5 205t212.5 78q130 0 214.5-77.5t84.5-205.5q0-126-85-206.5t-214-80.5q-127 0-212 80.5t-85 206.5zm132 0q0-80 45.5-127.5t119.5-47.5q75 0 120.5 47.5t45.5 127.5q0 77-45.5 125.5t-120.5 48.5q-74 0-119.5-48.5t-45.5-125.5zm-4 465h67q12-66 103-66 46 0 70 13t34 53h66q-7-72-52.5-108t-118.5-36q-74 0-119.5 36t-49.5 108z"/><glyph glyph-name="two.onum" horiz-adv-x="561" d="M502 0h-437v100l56 35q156 100 196 136 57 51 57 102 0 40-27 64t-77 24q-81 0-124-79l-93 51q33 60 91 94t131 34q100 0 160-46.5t60-133.5q0-41-16.5-77t-53-69.5-65-54-82.5-54.5l-38-23v-3h262v-100z"/><glyph glyph-name="nine.sc" horiz-adv-x="516" d="M281 0h-144l141 200-2 2q-24-9-50-9-74 0-123.5 46t-49.5 125q0 85 59.5 138.5t146.5 53.5q88 0 146.5-54t58.5-137-65-182zm63 369q0 39-25 62t-62 23q-36 0-60.5-24t-24.5-63 25-62.5 61-23.5 61 24 25 64z"/><glyph glyph-name="oacute.sc" horiz-adv-x="684" d="M44 273q0 127 84.5 205t212.5 78q130 0 214.5-77.5t84.5-205.5q0-126-85-206.5t-214-80.5q-127 0-212 80.5t-85 206.5zm132 0q0-80 45.5-127.5t119.5-47.5q75 0 120.5 47.5t45.5 127.5q0 77-45.5 125.5t-120.5 48.5q-74 0-119.5-48.5t-45.5-125.5zm98 321l99 144h136l-141-144h-94z"/><glyph glyph-name="idotaccent.sc" horiz-adv-x="274" d="M76 0v542h122v-542h-122zm-22 673q0 29 22 50.5t54 21.5q33 0 55.5-20.5t22.5-51.5-22.5-51.5-55.5-20.5q-32 0-54 21.5t-22 50.5z"/><glyph glyph-name="ucircumflex.sc" horiz-adv-x="595" d="M525 542v-339q0-100-65-158.5t-163-58.5-162.5 58.5-64.5 158.5v339h122v-330q0-52 27-84t78-32q52 0 79 32t27 84v330h122zm-44 52h-114l-69 90-69-90h-112l115 144h135z"/><glyph glyph-name="macron.cap" d="M290 873v-78h-320v78h320z"/><glyph glyph-name="oslash.sc" horiz-adv-x="684" d="M597 571l43-40-69-70q69-78 69-188 0-126-85-206.5t-214-80.5q-101 0-179 54l-69-73-41 41 67 69q-75 78-75 196 0 127 84.5 205t212.5 78q108 0 188-56zm-427-298q0-63 31-111l248 255q-46 36-108 36-77 0-124-50.5t-47-129.5zm343 0q0 55-26 99l-244-252q38-28 98-28 77 0 124.5 49.5t47.5 131.5z"/><glyph glyph-name="yacute.sc" horiz-adv-x="510" d="M194 0v221l-202 321h143l123-219 122 219h138l-202-321v-221h-122zm-3 594l99 144h136l-141-144h-94z"/><glyph glyph-name="uhungarumlaut.sc" horiz-adv-x="595" d="M525 542v-339q0-100-65-158.5t-163-58.5-162.5 58.5-64.5 158.5v339h122v-330q0-52 27-84t78-32q52 0 79 32t27 84v330h122zm-373 52l99 144h136l-141-144h-94zm205 0l99 144h136l-141-144h-94z"/><glyph glyph-name="omacron.sc" horiz-adv-x="684" d="M44 273q0 127 84.5 205t212.5 78q130 0 214.5-77.5t84.5-205.5q0-126-85-206.5t-214-80.5q-127 0-212 80.5t-85 206.5zm132 0q0-80 45.5-127.5t119.5-47.5q75 0 120.5 47.5t45.5 127.5q0 77-45.5 125.5t-120.5 48.5q-74 0-119.5-48.5t-45.5-125.5zm326 430v-78h-320v78h320z"/><glyph glyph-name="z.sc" horiz-adv-x="523" d="M50 0v98l276 345h-273v99h417v-101l-273-341h276v-100h-423z"/><glyph glyph-name="questiondown.sc" horiz-adv-x="439" d="M298 474q0-32-22.5-54t-55.5-22-55.5 21-22.5 53 22.5 54 55.5 22q32 0 55-21t23-53zm-135-131h116v-17q0-49-47-93l-33-31q-31-28-31-62 0-18 13.5-33t37.5-15q53 0 58 61l120-11q-9-78-59.5-117t-128.5-39q-79 0-121.5 43.5t-42.5 103.5q0 40 14.5 71t53.5 62q32 26 41 38.5t9 34.5v4z"/><glyph glyph-name="idieresis.sc" horiz-adv-x="274" d="M76 0v542h122v-542h-122zm-108 674q0 28 20.5 49t50.5 21q31 0 52-20t21-50-21-50-52-20q-30 0-50.5 21t-20.5 49zm196 0q0 28 20.5 49t50.5 21q31 0 52-20t21-50-21-50-52-20q-30 0-50.5 21t-20.5 49z"/><glyph glyph-name="one.sc" horiz-adv-x="516" d="M235 0v392l-98-82-70 80 186 152h101v-542h-119z"/><glyph glyph-name="question.sc" horiz-adv-x="439" d="M142 68q0 32 22.5 54t55.5 22 55.5-21 22.5-53-22.5-54-55.5-22q-32 0-55 21t-23 53zm135 131h-116v17q0 49 47 93l33 31q31 28 31 62 0 18-13.5 33t-37.5 15q-53 0-58-61l-120 11q9 78 59.5 117t128.5 39q79 0 121.5-43.5t42.5-103.5q0-40-14.5-71t-53.5-62q-32-26-41-38.5t-9-34.5v-4z"/><glyph glyph-name="iacute.sc" horiz-adv-x="274" d="M76 0v542h122v-542h-122zm5 594l99 144h136l-141-144h-94z"/><glyph glyph-name="three.sc" horiz-adv-x="516" d="M189 236v92h36q96 0 96 69 0 26-18 43.5t-46 17.5q-26 0-46-17t-28-48l-112 27q16 62 68 99t121 37q78 0 129.5-39.5t51.5-111.5q0-88-82-120v-3q96-27 96-125 0-81-59-126t-137-45q-160 0-209 137l113 35q21-72 93-72 33 0 56.5 17.5t23.5 54.5q0 39-32.5 58.5t-79.5 19.5h-35z"/><glyph glyph-name="ordfeminine.sc" horiz-adv-x="380" d="M360 428h-88l-23 57h-119l-22-57h-86l126 294h85zm-132 114l-38 101-38-101h76z"/><glyph glyph-name="l.sc" horiz-adv-x="433" d="M76 0v542h122v-435h221v-107h-343z"/><glyph glyph-name="scommaaccent.sc" horiz-adv-x="492" d="M448 474l-83-79q-18 25-48.5 42t-64.5 17q-35 0-58.5-13.5t-23.5-42.5q0-28 24.5-42t86.5-29q33-8 58.5-18.5t52-28.5 41-47 14.5-66q0-92-61-136.5t-153-44.5q-61 0-118 23t-93 65l85 86q21-30 56-48.5t75-18.5q34 0 58 14.5t24 46.5q0 31-25.5 46t-91.5 31q-70 17-111 51t-41 102q0 84 60 128t144 44q58 0 110.5-21t82.5-61zm-320-714l65 195h106l-80-195h-91z"/><glyph glyph-name="uring.sc" horiz-adv-x="595" d="M525 542v-339q0-100-65-158.5t-163-58.5-162.5 58.5-64.5 158.5v339h122v-330q0-52 27-84t78-32q52 0 79 32t27 84v330h122zm-122 143q0-44-30-73t-75-29q-44 0-74.5 29t-30.5 72q0 44 30 73.5t75 29.5 75-29 30-73zm-46 0q0 25-17 41t-42 16-42-16.5-17-41.5q0-24 17-40t42-16 42 16 17 41z"/><glyph glyph-name="i.sc" horiz-adv-x="274" d="M76 0v542h122v-542h-122z"/><glyph glyph-name="hcircumflex.sc" horiz-adv-x="619" d="M76 0v542h122v-213h223v213h122v-542h-122v228h-223v-228h-122zm416 594h-114l-69 90-69-90h-112l115 144h135z"/><glyph glyph-name="ograve.sc" horiz-adv-x="684" d="M44 273q0 127 84.5 205t212.5 78q130 0 214.5-77.5t84.5-205.5q0-126-85-206.5t-214-80.5q-127 0-212 80.5t-85 206.5zm132 0q0-80 45.5-127.5t119.5-47.5q75 0 120.5 47.5t45.5 127.5q0 77-45.5 125.5t-120.5 48.5q-74 0-119.5-48.5t-45.5-125.5zm123 465l99-144h-94l-141 144h136z"/><glyph glyph-name="ycircumflex.sc" horiz-adv-x="510" d="M194 0v221l-202 321h143l123-219 122 219h138l-202-321v-221h-122zm247 594h-114l-69 90-69-90h-112l115 144h135z"/><glyph glyph-name="o.sc" horiz-adv-x="684" d="M44 273q0 127 84.5 205t212.5 78q130 0 214.5-77.5t84.5-205.5q0-126-85-206.5t-214-80.5q-127 0-212 80.5t-85 206.5zm132 0q0-80 45.5-127.5t119.5-47.5q75 0 120.5 47.5t45.5 127.5q0 77-45.5 125.5t-120.5 48.5q-74 0-119.5-48.5t-45.5-125.5z"/><glyph glyph-name="scircumflex.sc" horiz-adv-x="492" d="M448 474l-83-79q-18 25-48.5 42t-64.5 17q-35 0-58.5-13.5t-23.5-42.5q0-28 24.5-42t86.5-29q33-8 58.5-18.5t52-28.5 41-47 14.5-66q0-92-61-136.5t-153-44.5q-61 0-118 23t-93 65l85 86q21-30 56-48.5t75-18.5q34 0 58 14.5t24 46.5q0 31-25.5 46t-91.5 31q-70 17-111 51t-41 102q0 84 60 128t144 44q58 0 110.5-21t82.5-61zm-12 120h-114l-69 90-69-90h-112l115 144h135z"/><glyph glyph-name="j.sc" horiz-adv-x="405" d="M339 542v-370q0-33-7.5-63t-25-59-53-46.5-85.5-17.5q-127 0-168 134l113 32q17-56 54-56 27 0 38.5 19.5t11.5 61.5v365h122z"/><glyph glyph-name="igrave.sc" horiz-adv-x="274" d="M76 0v542h122v-542h-122zm22 738l99-144h-94l-141 144h136z"/><glyph glyph-name="aring.sc" horiz-adv-x="582" d="M-2 0l235 542h117l234-542h-136l-48 118h-223l-47-118h-132zm217 214h148l-75 187zm181 471q0-44-30-73t-75-29q-44 0-74.5 29t-30.5 72q0 44 30 73.5t75 29.5 75-29 30-73zm-46 0q0 25-17 41t-42 16-42-16.5-17-41.5q0-24 17-40t42-16 42 16 17 41z"/><glyph glyph-name="ring.sc" d="M235 685q0-44-30-73t-75-29q-44 0-74.5 29t-30.5 72q0 44 30 73.5t75 29.5 75-29 30-73zm-46 0q0 25-17 41t-42 16-42-16.5-17-41.5q0-24 17-40t42-16 42 16 17 41z"/><glyph glyph-name="hungarumlaut.sc" d="M-20 594l99 144h136l-141-144h-94zm205 0l99 144h136l-141-144h-94z"/><glyph glyph-name="sterling.sc" horiz-adv-x="516" d="M60 0v100h61v131h-61v82h61v58q0 71 50.5 125.5t139.5 54.5q83 0 143-51l-68-79q-33 34-73 34-29 0-50.5-23t-21.5-66v-53h110v-82h-110v-131h187v-100h-368z"/><glyph glyph-name="nacute.sc" horiz-adv-x="634" d="M76 0v542h148l215-374h2v374h117v-542h-148l-215 375h-2v-375h-117zm169 594l99 144h136l-141-144h-94z"/><glyph glyph-name="ubreve.sc" horiz-adv-x="595" d="M525 542v-339q0-100-65-158.5t-163-58.5-162.5 58.5-64.5 158.5v339h122v-330q0-52 27-84t78-32q52 0 79 32t27 84v330h122zm-399 196h67q12-66 103-66 46 0 70 13t34 53h66q-7-72-52.5-108t-118.5-36q-74 0-119.5 36t-49.5 108z"/><glyph glyph-name="seven.sc" horiz-adv-x="516" d="M69 438v104h381v-96l-211-446h-137l224 438h-257z"/><glyph glyph-name="odieresis.sc" horiz-adv-x="684" d="M44 273q0 127 84.5 205t212.5 78q130 0 214.5-77.5t84.5-205.5q0-126-85-206.5t-214-80.5q-127 0-212 80.5t-85 206.5zm132 0q0-80 45.5-127.5t119.5-47.5q75 0 120.5 47.5t45.5 127.5q0 77-45.5 125.5t-120.5 48.5q-74 0-119.5-48.5t-45.5-125.5zm-6 401q0 28 20.5 49t50.5 21q31 0 52-20t21-50-21-50-52-20q-30 0-50.5 21t-20.5 49zm196 0q0 28 20.5 49t50.5 21q31 0 52-20t21-50-21-50-52-20q-30 0-50.5 21t-20.5 49z"/><glyph glyph-name="zcaron.sc" horiz-adv-x="523" d="M50 0v98l276 345h-273v99h417v-101l-273-341h276v-100h-423zm34 738h114l69-90 69 90h110l-115-144h-133z"/><glyph glyph-name="nine.onum" horiz-adv-x="625" d="M568 309q0-116-94-254t-221-239l-103 59q70 53 133.5 119t99.5 125l-3 2q-34-26-99-26-95 0-159.5 63t-64.5 161q0 109 72.5 175.5t182.5 66.5q112 0 184-67t72-185zm-122 14q0 57-37.5 96.5t-96.5 39.5q-60 0-97-38.5t-37-98.5q0-59 37-97t96-38q60 0 97.5 38t37.5 98z"/><glyph glyph-name="germandbls.sc" horiz-adv-x="984" d="M448 474l-83-79q-18 25-48.5 42t-64.5 17q-35 0-58.5-13.5t-23.5-42.5q0-28 24.5-42t86.5-29q33-8 58.5-18.5t52-28.5 41-47 14.5-66q0-92-61-136.5t-153-44.5q-61 0-118 23t-93 65l85 86q21-30 56-48.5t75-18.5q34 0 58 14.5t24 46.5q0 31-25.5 46t-91.5 31q-70 17-111 51t-41 102q0 84 60 128t144 44q58 0 110.5-21t82.5-61zm492 0l-83-79q-18 25-48.5 42t-64.5 17q-35 0-58.5-13.5t-23.5-42.5q0-28 24.5-42t86.5-29q33-8 58.5-18.5t52-28.5 41-47 14.5-66q0-92-61-136.5t-153-44.5q-61 0-118 23t-93 65l85 86q21-30 56-48.5t75-18.5q34 0 58 14.5t24 46.5q0 31-25.5 46t-91.5 31q-70 17-111 51t-41 102q0 84 60 128t144 44q58 0 110.5-21t82.5-61z"/><glyph glyph-name="aacute.sc" horiz-adv-x="582" d="M-2 0l235 542h117l234-542h-136l-48 118h-223l-47-118h-132zm217 214h148l-75 187zm19 380l99 144h136l-141-144h-94z"/><glyph glyph-name="q.sc" horiz-adv-x="679" d="M662 100v-100h-327q-133 0-212 72.5t-79 204.5q0 122 83 200.5t209 78.5q127 0 209-73.5t82-196.5q0-116-79-183v-3h114zm-326 347q-68 0-114-48t-46-122q0-81 45-129t115-48q73 0 116.5 47.5t43.5 129.5q0 75-45.5 122.5t-114.5 47.5z"/><glyph glyph-name="exclamdown.sc" horiz-adv-x="308" d="M214 0h-120v343h120v-343zm-138 473q0 32 23 53.5t55 21.5q33 0 55.5-22.5t22.5-54.5-22.5-53.5-55.5-21.5-55.5 22.5-22.5 54.5z"/><glyph glyph-name="jcircumflex.sc" horiz-adv-x="405" d="M339 542v-370q0-33-7.5-63t-25-59-53-46.5-85.5-17.5q-127 0-168 134l113 32q17-56 54-56 27 0 38.5 19.5t11.5 61.5v365h122zm122 52h-114l-69 90-69-90h-112l115 144h135z"/><glyph glyph-name="lacute.sc" horiz-adv-x="433" d="M76 0v542h122v-435h221v-107h-343zm14 594l99 144h136l-141-144h-94z"/><glyph glyph-name="zacute.sc" horiz-adv-x="523" d="M50 0v98l276 345h-273v99h417v-101l-273-341h276v-100h-423zm124 594l99 144h136l-141-144h-94z"/><glyph glyph-name="six.onum" horiz-adv-x="625" d="M568 223q0-109-72.5-175.5t-182.5-66.5q-113 0-184.5 66.5t-71.5 185.5q0 117 93.5 252.5t220.5 236.5l102-59q-70-52-133-116.5t-98-123.5l3-2q34 26 99 26 95 0 159.5-63t64.5-161zm-122-3q0 59-36.5 97t-95.5 38q-60 0-97.5-38t-37.5-98q0-57 37.5-96.5t96.5-39.5q60 0 96.5 38.5t36.5 98.5z"/><glyph glyph-name="k.sc" horiz-adv-x="569" d="M76 0v542h122v-224h2l198 224h161l-243-252 256-290h-164l-208 254h-2v-254h-122z"/><glyph glyph-name="tcommaaccent.sc" horiz-adv-x="446" d="M162 0v439h-158v103h438v-103h-158v-439h-122zm-42-240l65 195h106l-80-195h-91z"/><glyph glyph-name="r.sc" horiz-adv-x="529" d="M76 0v542h197q91 0 148.5-39.5t57.5-123.5q0-56-29.5-95.5t-75.5-54.5l129-229h-144l-108 211h-53v-211h-122zm122 304h62q96 0 96 74 0 65-88 65h-70v-139z"/><glyph glyph-name="lslash.sc" horiz-adv-x="433" d="M306 393l-296-252v108l296 251v-107zm-230-393v542h122v-437h221v-105h-343z"/><glyph glyph-name="scaron.sc" horiz-adv-x="492" d="M448 474l-83-79q-18 25-48.5 42t-64.5 17q-35 0-58.5-13.5t-23.5-42.5q0-28 24.5-42t86.5-29q33-8 58.5-18.5t52-28.5 41-47 14.5-66q0-92-61-136.5t-153-44.5q-61 0-118 23t-93 65l85 86q21-30 56-48.5t75-18.5q34 0 58 14.5t24 46.5q0 31-25.5 46t-91.5 31q-70 17-111 51t-41 102q0 84 60 128t144 44q58 0 110.5-21t82.5-61zm-374 264h114l69-90 69 90h110l-115-144h-133z"/><glyph glyph-name="icircumflex.sc" horiz-adv-x="274" d="M76 0v542h122v-542h-122zm244 594h-114l-69 90-69-90h-112l115 144h135z"/><glyph glyph-name="itilde.sc" horiz-adv-x="274" d="M76 0v542h122v-542h-122zm-55 598h-66q11 58 32 88 29 39 80 39 36 0 79-18 45-19 65-19 33 0 46 42h66q-22-127-112-127-37 0-82 20-39 18-62 18-32 0-46-43z"/><glyph glyph-name="s.sc" horiz-adv-x="492" d="M448 474l-83-79q-18 25-48.5 42t-64.5 17q-35 0-58.5-13.5t-23.5-42.5q0-28 24.5-42t86.5-29q33-8 58.5-18.5t52-28.5 41-47 14.5-66q0-92-61-136.5t-153-44.5q-61 0-118 23t-93 65l85 86q21-30 56-48.5t75-18.5q34 0 58 14.5t24 46.5q0 31-25.5 46t-91.5 31q-70 17-111 51t-41 102q0 84 60 128t144 44q58 0 110.5-21t82.5-61z"/><glyph glyph-name="hbar.sc" horiz-adv-x="619" d="M76 0v542h122v-218h223v218h122v-542h-122v228h-223v-228h-122zm401 460l-19-60h-312l17 60h314z"/><glyph glyph-name="y.sc" horiz-adv-x="510" d="M194 0v221l-202 321h143l123-219 122 219h138l-202-321v-221h-122z"/><glyph glyph-name="kcommaaccent.sc" horiz-adv-x="569" d="M76 0v542h122v-224h2l198 224h161l-243-252 256-290h-164l-208 254h-2v-254h-122zm108-240l65 195h106l-80-195h-91z"/><glyph glyph-name="zdotaccent.sc" horiz-adv-x="523" d="M50 0v98l276 345h-273v99h417v-101l-273-341h276v-100h-423zm138 673q0 29 22 50.5t54 21.5q33 0 55.5-20.5t22.5-51.5-22.5-51.5-55.5-20.5q-32 0-54 21.5t-22 50.5z"/><glyph glyph-name="exclam.sc" horiz-adv-x="308" d="M214 542v-343h-120v343h120zm-138-473q0 32 22.5 54.5t55.5 22.5 55.5-21.5 22.5-53.5-22.5-54.5-55.5-22.5q-32 0-55 21.5t-23 53.5z"/><glyph glyph-name="a.sc" horiz-adv-x="582" d="M-2 0l235 542h117l234-542h-136l-48 118h-223l-47-118h-132zm217 214h148l-75 187z"/><glyph glyph-name="h.sc" horiz-adv-x="619" d="M76 0v542h122v-213h223v213h122v-542h-122v228h-223v-228h-122z"/><glyph glyph-name="m.sc" horiz-adv-x="746" d="M76 0v542h174l126-359h3l123 359h168v-542h-115v385h-2l-138-385h-85l-138 385h-2v-385h-114z"/><glyph glyph-name="tilde.sc" d="M12 598h-66q11 58 32 88 29 39 80 39 36 0 79-18 45-19 65-19 33 0 46 42h66q-22-127-112-127-37 0-82 20-39 18-62 18-32 0-46-43z"/><glyph glyph-name="grave.cap" d="M101 908l99-144h-94l-141 144h136z"/><glyph glyph-name="seven.onum" horiz-adv-x="546" d="M499 444q-176-351-285-626l-124 30q135 301 282 593h-329v105h456v-102z"/><glyph glyph-name="tbar.sc" horiz-adv-x="446" d="M162 0v439h-158v103h438v-103h-158v-439h-122zm230 345v-75h-338v75h338z"/><glyph glyph-name="acute.cap" d="M60 764l99 144h136l-141-144h-94z"/><glyph glyph-name="wcircumflex.sc" horiz-adv-x="826" d="M171 0l-165 542h135l98-380h2l105 380h135l106-380h2l100 380h131l-164-542h-132l-110 374h-2l-110-374h-131zm424 594h-114l-69 90-69-90h-112l115 144h135z"/><glyph glyph-name="ebreve.sc" horiz-adv-x="508" d="M76 0v542h374v-101h-252v-114h239v-96h-239v-127h265v-104h-387zm18 738h67q12-66 103-66 46 0 70 13t34 53h66q-7-72-52.5-108t-118.5-36q-74 0-119.5 36t-49.5 108z"/><glyph glyph-name="ncommaaccent.sc" horiz-adv-x="634" d="M76 0v542h148l215-374h2v374h117v-542h-148l-215 375h-2v-375h-117zm139-240l65 195h106l-80-195h-91z"/><glyph glyph-name="three.onum" horiz-adv-x="559" d="M498 78q0-119-84-183.5t-216-64.5q-68 0-118 10l17 104q41-10 95-10 86 0 134.5 36.5t48.5 103.5q0 55-41 87.5t-117 32.5q-41 0-105-15l-23 86q134 93 238 177v4h-255v100h398v-106q-97-84-214-163v-3q16 2 31 2 91 0 151-55.5t60-142.5z"/><glyph glyph-name="one.onum" horiz-adv-x="426" d="M310 0h-120v408l-94-76-65 81 170 133h109v-546z"/><glyph glyph-name="ntilde.sc" horiz-adv-x="634" d="M76 0v542h148l215-374h2v374h117v-542h-148l-215 375h-2v-375h-117zm120 598h-66q11 58 32 88 29 39 80 39 36 0 79-18 45-19 65-19 33 0 46 42h66q-22-127-112-127-37 0-82 20-39 18-62 18-32 0-46-43z"/><glyph glyph-name="w.sc" horiz-adv-x="826" d="M171 0l-165 542h135l98-380h2l105 380h135l106-380h2l100 380h131l-164-542h-132l-110 374h-2l-110-374h-131z"/><glyph glyph-name="acute.sc" d="M83 594l99 144h136l-141-144h-94z"/><glyph glyph-name="four.sc" horiz-adv-x="516" d="M287 0v104h-252v94l222 344h142v-343h72v-95h-72v-104h-112zm0 199v209h-3l-129-209h132z"/><glyph glyph-name="Euro.sc" horiz-adv-x="516" d="M438 111l35-93q-53-32-133-32-89 0-152.5 43.5t-88.5 130.5h-79l28 81h37q-1 5-1 27 0 21 2 31h-60l28 81h45q26 83 92.5 129.5t158.5 46.5q69 0 131-27l-39-97q-39 26-97 26-44 0-80-22t-50-56h210l-24-81h-202q-2-12-2-32 0-16 2-26h183l-26-81h-141q26-74 129-74 51 0 94 25z"/><glyph glyph-name="dotaccent.cap" d="M54 843q0 29 22 50.5t54 21.5q33 0 55.5-20.5t22.5-51.5-22.5-51.5-55.5-20.5q-32 0-54 21.5t-22 50.5z"/><glyph glyph-name="aogonek.sc" horiz-adv-x="582" d="M-2 0l235 542h117l234-542h-136l-48 118h-223l-47-118h-132zm217 214h148l-75 187zm311-367l25-49q-48-38-100-38-42 0-72.5 24t-30.5 65q0 39 30.5 80t69.5 71h61q-30-26-56.5-62.5t-26.5-65.5q0-19 13.5-32.5t32.5-13.5q30 0 54 21z"/><glyph glyph-name="five.onum" horiz-adv-x="554" d="M487 546v-105h-266l-21-150q27 6 56 6 100 0 164-57.5t64-157.5q0-123-81-187.5t-209-64.5q-68 0-121 10l17 104q40-10 93-10 179 0 179 145 0 62-43.5 94t-112.5 32q-63 0-125-18l38 359h368z"/><glyph glyph-name="florin.sc" horiz-adv-x="516" d="M407 344v-88h-95l-30-168q-16-92-60.5-133t-123.5-41q-57 0-92 25l45 88q13-15 41-15 34 0 51 23.5t25 71.5l26 149h-76v88h88l12 72q10 64 52.5 99.5t107.5 35.5q59 0 106-32l-46-91q-26 19-57 19-42 0-51-57l-8-46h85z"/><glyph glyph-name="atilde.sc" horiz-adv-x="582" d="M-2 0l235 542h117l234-542h-136l-48 118h-223l-47-118h-132zm217 214h148l-75 187zm-43 384h-66q11 58 32 88 29 39 80 39 36 0 79-18 45-19 65-19 33 0 46 42h66q-22-127-112-127-37 0-82 20-39 18-62 18-32 0-46-43z"/><glyph glyph-name="dollar.sc" horiz-adv-x="516" d="M281 610v-68q89-5 153-57l-74-79q-32 36-79 41v-125q164-47 164-163 0-67-44.5-111.5t-119.5-47.5v-69h-51v69q-105 7-176 73l83 80q43-53 93-55v136q-89 25-126 61t-37 97q0 62 43 104t120 47v67h51zm0-390v-123q50 6 50 55 0 48-50 68zm-51 115v112q-24-3-37-18.5t-13-34.5q0-42 50-59z"/><glyph glyph-name="ccedilla.sc" horiz-adv-x="565" d="M546 466l-93-77q-41 58-115 58-72 0-116-48t-44-126q0-76 44-125.5t115-49.5q77 0 123 64l96-73q-76-103-223-103-131 0-210 78.5t-79 208.5q0 127 84.5 205t212.5 78q134 0 205-90zm-191-466l-45-64q8 1 19 1 105 0 105-83 0-50-41-72t-95-22q-61 0-110 26l23 48q38-20 82-20 57 0 57 41 0 36-53 36-21 0-39-6l-23 25 62 90h58z"/><glyph glyph-name="gbreve.sc" horiz-adv-x="615" d="M560 316v-284q-94-46-215-46-134 0-217.5 80t-83.5 207q0 128 84 205.5t213 77.5q138 0 216-72l-85-93q-45 56-130 56-76 0-120-48t-44-126 47.5-127.5 124.5-49.5q50 0 89 15v111h-110v94h231zm-384 422h67q12-66 103-66 46 0 70 13t34 53h66q-7-72-52.5-108t-118.5-36q-74 0-119.5 36t-49.5 108z"/><glyph glyph-name="lcaron.sc" horiz-adv-x="433" d="M76 0v542h122v-435h221v-107h-343zm174 347l65 195h106l-80-195h-91z"/><glyph glyph-name="racute.sc" horiz-adv-x="529" d="M76 0v542h197q91 0 148.5-39.5t57.5-123.5q0-56-29.5-95.5t-75.5-54.5l129-229h-144l-108 211h-53v-211h-122zm122 304h62q96 0 96 74 0 65-88 65h-70v-139zm-18 290l99 144h136l-141-144h-94z"/><glyph glyph-name="dcroat.sc" horiz-adv-x="623" d="M76 0v245h-67v82h67v215h205q60 0 111-14.5t94.5-44.5 68-84 24.5-127q0-132-88.5-202t-213.5-70h-201zm122 101h64q38 0 69 8t58 26.5 42.5 53.5 15.5 83q0 51-15 86t-42 53-58 25-70 7h-64v-116h124v-82h-124v-144z"/><glyph glyph-name="four.onum" horiz-adv-x="606" d="M578 5h-107v-175h-115v175h-318v105l264 451h125l-271-455h200v226h114v-226h108v-101z"/><glyph glyph-name="tilde.cap" d="M12 768h-66q22 127 112 127 36 0 79-18 45-19 65-19 33 0 46 42h66q-22-127-112-127-37 0-82 20-39 18-62 18-32 0-46-43z"/><glyph glyph-name="utilde.sc" horiz-adv-x="595" d="M525 542v-339q0-100-65-158.5t-163-58.5-162.5 58.5-64.5 158.5v339h122v-330q0-52 27-84t78-32q52 0 79 32t27 84v330h122zm-345 56h-66q11 58 32 88 29 39 80 39 36 0 79-18 45-19 65-19 33 0 46 42h66q-22-127-112-127-37 0-82 20-39 18-62 18-32 0-46-43z"/><glyph glyph-name="acircumflex.sc" horiz-adv-x="582" d="M-2 0l235 542h117l234-542h-136l-48 118h-223l-47-118h-132zm217 214h148l-75 187zm256 380h-114l-69 90-69-90h-112l115 144h135z"/><glyph glyph-name="fi.sc" horiz-adv-x="758" d="M560 0v542h122v-542h-122zm-484 0v542h365v-103h-243v-128h229v-98h-229v-213h-122z"/><glyph glyph-name="ldot.sc" horiz-adv-x="433" d="M76 0v542h122v-435h221v-107h-343zm191 313q0 29 22 50.5t54 21.5q33 0 55.5-20.5t22.5-51.5-22.5-51.5-55.5-20.5q-32 0-54 21.5t-22 50.5z"/><glyph glyph-name="zero.sc" horiz-adv-x="516" d="M466 271q0-136-56-210.5t-152-74.5q-97 0-152.5 74.5t-55.5 210.5 55.5 210.5 152.5 74.5q96 0 152-74.5t56-210.5zm-120 0q0 80-23.5 129.5t-64.5 49.5-64.5-49.5-23.5-129.5 23.5-128.5 64.5-48.5q42 0 65 48t23 129z"/><glyph glyph-name="b.sc" horiz-adv-x="541" d="M76 0v542h219q77 0 125.5-35.5t48.5-107.5q0-78-73-112v-3q45-12 70-44t25-80q0-83-61-121.5t-151-38.5h-203zm119 231v-134h80q44 0 68.5 18.5t24.5 52.5q0 63-80 63h-93zm0 212v-118h74q36 0 56.5 17t20.5 46q0 55-79 55h-72z"/><glyph glyph-name="caron.cap" d="M-51 908h114l69-90 69 90h110l-115-144h-133z"/><glyph glyph-name="two.sc" horiz-adv-x="516" d="M73 0v98l184 179q60 57 60 110 0 27-17 46.5t-49 19.5q-29 0-49-20.5t-26-57.5l-111 16q10 72 61.5 118.5t126.5 46.5q79 0 131.5-42.5t52.5-117.5q0-92-92-181l-120-115h216v-100h-368z"/><glyph glyph-name="dotaccent.sc" d="M54 673q0 29 22 50.5t54 21.5q33 0 55.5-20.5t22.5-51.5-22.5-51.5-55.5-20.5q-32 0-54 21.5t-22 50.5z"/><glyph glyph-name="yen.sc" horiz-adv-x="516" d="M189 0v93h-123v76h123v55h-123v76h93l-151 242h137l109-206 110 206h127l-149-242h88v-76h-123v-55h123v-76h-123v-93h-118z"/><glyph glyph-name="scedilla.sc" horiz-adv-x="492" d="M448 474l-83-79q-18 25-48.5 42t-64.5 17q-35 0-58.5-13.5t-23.5-42.5q0-28 24.5-42t86.5-29q33-8 58.5-18.5t52-28.5 41-47 14.5-66q0-92-61-136.5t-153-44.5q-61 0-118 23t-93 65l85 86q21-30 56-48.5t75-18.5q34 0 58 14.5t24 46.5q0 31-25.5 46t-91.5 31q-70 17-111 51t-41 102q0 84 60 128t144 44q58 0 110.5-21t82.5-61zm-176-474l-45-64q8 1 19 1 105 0 105-83 0-50-41-72t-95-22q-61 0-110 26l23 48q38-20 82-20 57 0 57 41 0 36-53 36-21 0-39-6l-23 25 62 90h58z"/><glyph glyph-name="cent.sc" horiz-adv-x="516" d="M328 559v-67q115-4 170-69l-77-78q-40 42-93 45v-300q56 0 97 46l73-79q-60-65-170-69v-72h-54v72q-101 9-161.5 79.5t-60.5 173.5q0 104 59.5 170.5t162.5 80.5v67h54zm-54-469v299q-53-11-80.5-51.5t-27.5-97.5q0-54 28-95.5t80-54.5z"/><glyph glyph-name="uogonek.sc" horiz-adv-x="595" d="M525 542v-339q0-100-65-158.5t-163-58.5-162.5 58.5-64.5 158.5v339h122v-330q0-52 27-84t78-32q52 0 79 32t27 84v330h122zm-145-695l25-49q-48-38-100-38-42 0-72.5 24t-30.5 65q0 39 30.5 80t69.5 71h61q-30-26-56.5-62.5t-26.5-65.5q0-19 13.5-32.5t32.5-13.5q30 0 54 21z"/><glyph glyph-name="emacron.sc" horiz-adv-x="508" d="M76 0v542h374v-101h-252v-114h239v-96h-239v-127h265v-104h-387zm346 703v-78h-320v78h320z"/><glyph glyph-name="rcaron.sc" horiz-adv-x="529" d="M76 0v542h197q91 0 148.5-39.5t57.5-123.5q0-56-29.5-95.5t-75.5-54.5l129-229h-144l-108 211h-53v-211h-122zm122 304h62q96 0 96 74 0 65-88 65h-70v-139zm-117 434h114l69-90 69 90h110l-115-144h-133z"/><glyph glyph-name="eth.sc" horiz-adv-x="623" d="M76 0v245h-67v82h67v215h205q60 0 111-14.5t94.5-44.5 68-84 24.5-127q0-132-88.5-202t-213.5-70h-201zm122 101h64q38 0 69 8t58 26.5 42.5 53.5 15.5 83q0 51-15 86t-42 53-58 25-70 7h-64v-116h124v-82h-124v-144z"/><glyph glyph-name="ampersand.sc" horiz-adv-x="579" d="M554 282l-101-151 127-131h-156l-41 45q-64-59-160-59-77 0-132.5 43t-55.5 117q0 99 108 154-51 56-51 114 0 70 49 106t115 36q68 0 113-35.5t45-100.5q0-94-104-146l67-68 45 76h132zm-298 180q-19 0-33.5-14t-14.5-33q0-35 36-72 62 29 62 72 0 20-14 33.5t-36 13.5zm54-343l-103 107q-52-27-52-76 0-29 20-48t51-19q55 0 84 36z"/><glyph glyph-name="eight.onum" horiz-adv-x="613" d="M554 195q0-99-71.5-156t-175.5-57-176 57-72 156q0 66 37.5 113t94.5 64v2q-49 17-79 58.5t-30 98.5q0 89 65.5 142t159.5 53 159-52.5 65-141.5q0-56-29.5-99t-78.5-59v-2q57-15 94-63.5t37-113.5zm-247 434q-46 0-76-29.5t-30-74.5 30.5-75 75.5-30q44 0 75 30.5t31 74.5-31 74-75 30zm125-428q0 52-35.5 86.5t-89.5 34.5q-55 0-90-34t-35-87q0-54 34.5-87.5t90.5-33.5q55 0 90 34t35 87z"/><glyph glyph-name="ncaron.sc" horiz-adv-x="634" d="M76 0v542h148l215-374h2v374h117v-542h-148l-215 375h-2v-375h-117zm62 738h114l69-90 69 90h110l-115-144h-133z"/><glyph glyph-name="x.sc" horiz-adv-x="524" d="M0 0l186 287-169 255h145l100-167 99 167h138l-167-258 192-284h-151l-116 188-112-188h-145z"/><glyph glyph-name="breve.sc" d="M-40 738h67q12-66 103-66 46 0 70 13t34 53h66q-7-72-52.5-108t-118.5-36q-74 0-119.5 36t-49.5 108z"/><glyph glyph-name="fl.sc" horiz-adv-x="917" d="M560 0v542h122v-435h221v-107h-343zm-484 0v542h365v-103h-243v-128h229v-98h-229v-213h-122z"/><glyph glyph-name="dcaron.sc" horiz-adv-x="623" d="M76 0v542h205q60 0 111-14.5t94.5-44.5 68-84 24.5-127q0-132-88.5-202t-213.5-70h-201zm122 101h64q38 0 69 8t58 26.5 42.5 53.5 15.5 83q0 51-15 86t-42 53-58 25-70 7h-64v-342zm-89 637h114l69-90 69 90h110l-115-144h-133z"/><glyph glyph-name="agrave.sc" horiz-adv-x="582" d="M-2 0l235 542h117l234-542h-136l-48 118h-223l-47-118h-132zm217 214h148l-75 187zm35 524l99-144h-94l-141 144h136z"/><glyph glyph-name="rcommaaccent.sc" horiz-adv-x="529" d="M76 0v542h197q91 0 148.5-39.5t57.5-123.5q0-56-29.5-95.5t-75.5-54.5l129-229h-144l-108 211h-53v-211h-122zm122 304h62q96 0 96 74 0 65-88 65h-70v-139zm-36-544l65 195h106l-80-195h-91z"/><glyph glyph-name="u.sc" horiz-adv-x="595" d="M525 542v-339q0-100-65-158.5t-163-58.5-162.5 58.5-64.5 158.5v339h122v-330q0-52 27-84t78-32q52 0 79 32t27 84v330h122z"/><glyph glyph-name="uacute.sc" horiz-adv-x="595" d="M525 542v-339q0-100-65-158.5t-163-58.5-162.5 58.5-64.5 158.5v339h122v-330q0-52 27-84t78-32q52 0 79 32t27 84v330h122zm-289 52l99 144h136l-141-144h-94z"/><glyph glyph-name="zero.onum" horiz-adv-x="706" d="M649 275q0-128-84.5-208.5t-212.5-80.5q-126 0-210.5 81t-84.5 208q0 128 84 207t211 79q128 0 212.5-79t84.5-207zm-124 0q0 78-48 129.5t-125 51.5-124-51.5-47-129.5q0-79 47-131t124-52q78 0 125.5 52t47.5 131z"/><glyph glyph-name="eacute.sc" horiz-adv-x="508" d="M76 0v542h374v-101h-252v-114h239v-96h-239v-127h265v-104h-387zm110 594l99 144h136l-141-144h-94z"/><glyph glyph-name="dotlessj" horiz-adv-x="268" d="M74 480h120v-509q0-47-7.5-82t-25.5-66-53.5-47-87.5-16q-30 0-54 6l10 102q15-4 33-4 39 0 52 26.5t13 75.5v514z"/><glyph glyph-name="eight.sc" horiz-adv-x="516" d="M258 556q79 0 130.5-40.5t51.5-110.5q0-82-71-117v-2q41-16 66-50t25-80q0-80-58-125t-144-45-144 45-58 125q0 46 25 80.5t66 49.5v2q-33 15-52 45.5t-19 67.5q0 70 52 112.5t130 42.5zm0-318q-35 0-57.5-21.5t-22.5-56.5 22.5-56 57.5-21q34 0 57 21t23 56q0 34-23.5 56t-56.5 22zm0 222q-28 0-46.5-18t-18.5-47 18-46.5 47-17.5q27 0 46 18t19 46q0 29-19 47t-46 18z"/><glyph glyph-name="dieresis.sc" d="M-40 674q0 28 20.5 49t50.5 21q31 0 52-20t21-50-21-50-52-20q-30 0-50.5 21t-20.5 49zm196 0q0 28 20.5 49t50.5 21q31 0 52-20t21-50-21-50-52-20q-30 0-50.5 21t-20.5 49z"/><glyph glyph-name="edieresis.sc" horiz-adv-x="508" d="M76 0v542h374v-101h-252v-114h239v-96h-239v-127h265v-104h-387zm19 674q0 28 20.5 49t50.5 21q31 0 52-20t21-50-21-50-52-20q-30 0-50.5 21t-20.5 49zm196 0q0 28 20.5 49t50.5 21q31 0 52-20t21-50-21-50-52-20q-30 0-50.5 21t-20.5 49z"/><glyph glyph-name="caron.alt" d="M67 513l65 195h106l-80-195h-91z"/><glyph glyph-name="amacron.sc" horiz-adv-x="582" d="M-2 0l235 542h117l234-542h-136l-48 118h-223l-47-118h-132zm217 214h148l-75 187zm233 489v-78h-320v78h320z"/><glyph glyph-name="ccircumflex.sc" horiz-adv-x="565" d="M546 466l-93-77q-41 58-115 58-72 0-116-48t-44-126q0-76 44-125.5t115-49.5q77 0 123 64l96-73q-76-103-223-103-131 0-210 78.5t-79 208.5q0 127 84.5 205t212.5 78q134 0 205-90zm-24 128h-114l-69 90-69-90h-112l115 144h135z"/><glyph glyph-name="g.sc" horiz-adv-x="615" d="M560 316v-284q-94-46-215-46-134 0-217.5 80t-83.5 207q0 128 84 205.5t213 77.5q138 0 216-72l-85-93q-45 56-130 56-76 0-120-48t-44-126 47.5-127.5 124.5-49.5q50 0 89 15v111h-110v94h231z"/><glyph glyph-name="ecaron.sc" horiz-adv-x="508" d="M76 0v542h374v-101h-252v-114h239v-96h-239v-127h265v-104h-387zm9 738h114l69-90 69 90h110l-115-144h-133z"/><glyph glyph-name="eogonek.sc" horiz-adv-x="508" d="M76 0v542h374v-101h-252v-114h239v-96h-239v-127h265v-104h-387zm385-153l25-49q-48-38-100-38-42 0-72.5 24t-30.5 65q0 39 30.5 80t69.5 71h61q-30-26-56.5-62.5t-26.5-65.5q0-19 13.5-32.5t32.5-13.5q29 0 54 21z"/><glyph glyph-name="lcommaaccent.sc" horiz-adv-x="433" d="M76 0v542h122v-435h221v-107h-343zm65-240l65 195h106l-80-195h-91z"/><glyph glyph-name="ae.sc" horiz-adv-x="857" d="M799 542v-101h-252v-114h239v-96h-239v-127h265v-104h-387v125h-206l-76-125h-147l342 542h461zm-523-323h149v224h-13z"/><glyph glyph-name="ccaron.sc" horiz-adv-x="565" d="M546 466l-93-77q-41 58-115 58-72 0-116-48t-44-126q0-76 44-125.5t115-49.5q77 0 123 64l96-73q-76-103-223-103-131 0-210 78.5t-79 208.5q0 127 84.5 205t212.5 78q134 0 205-90zm-389 272h114l69-90 69 90h110l-115-144h-133z"/><glyph glyph-name="v.sc" horiz-adv-x="528" d="M210 0l-214 542h132l136-381h4l138 381h126l-217-542h-105z"/><glyph glyph-name="thorn.sc" horiz-adv-x="500" d="M76 0v542h119v-85h73q202 0 202-162 0-77-56-120.5t-154-43.5h-65v-131h-119zm119 226h59q95 0 95 68 0 32-21 48t-70 16h-63v-132z"/><glyph glyph-name="ring.cap" d="M235 855q0-44-30-73t-75-29q-44 0-74.5 29t-30.5 72q0 44 30 73.5t75 29.5 75-29 30-73zm-46 0q0 25-17 41t-42 16-42-16.5-17-41.5q0-24 17-40t42-16 42 16 17 41z"/><glyph glyph-name="e.sc" horiz-adv-x="508" d="M76 0v542h374v-101h-252v-114h239v-96h-239v-127h265v-104h-387z"/><glyph glyph-name="abreve.sc" horiz-adv-x="582" d="M-2 0l235 542h117l234-542h-136l-48 118h-223l-47-118h-132zm217 214h148l-75 187zm-96 524h67q12-66 103-66 46 0 70 13t34 53h66q-7-72-52.5-108t-118.5-36q-74 0-119.5 36t-49.5 108z"/><glyph glyph-name="adieresis.sc" horiz-adv-x="582" d="M-2 0l235 542h117l234-542h-136l-48 118h-223l-47-118h-132zm217 214h148l-75 187zm-94 460q0 28 20.5 49t50.5 21q31 0 52-20t21-50-21-50-52-20q-30 0-50.5 21t-20.5 49zm196 0q0 28 20.5 49t50.5 21q31 0 52-20t21-50-21-50-52-20q-30 0-50.5 21t-20.5 49z"/><glyph glyph-name="five.sc" horiz-adv-x="516" d="M425 542v-99h-209l-6-92q30 7 53 7 84 0 137.5-48t53.5-131q0-87-56.5-140t-148.5-53q-71 0-122 35.5t-72 97.5l107 39q9-34 33-54t54-20q38 0 62 24t24 64q0 48-29 70t-73 22q-66 0-140-38l17 316h315z"/><glyph glyph-name="ecircumflex.sc" horiz-adv-x="508" d="M76 0v542h374v-101h-252v-114h239v-96h-239v-127h265v-104h-387zm369 594h-114l-69 90-69-90h-112l115 144h135z"/><glyph glyph-name="circumflex.cap" d="M312 764h-114l-69 90-69-90h-112l115 144h135z"/><glyph glyph-name="commaaccent" d="M43-240l65 195h106l-80-195h-91z"/><glyph glyph-name="cacute.sc" horiz-adv-x="565" d="M546 466l-93-77q-41 58-115 58-72 0-116-48t-44-126q0-76 44-125.5t115-49.5q77 0 123 64l96-73q-76-103-223-103-131 0-210 78.5t-79 208.5q0 127 84.5 205t212.5 78q134 0 205-90zm-297 128l99 144h136l-141-144h-94z"/><glyph glyph-name="breve.cap" d="M-40 908h67q12-66 103-66 46 0 70 13t34 53h66q-7-72-52.5-108t-118.5-36q-74 0-119.5 36t-49.5 108z"/><glyph glyph-name="edotaccent.sc" horiz-adv-x="508" d="M76 0v542h374v-101h-252v-114h239v-96h-239v-127h265v-104h-387zm116 673q0 29 22 50.5t54 21.5q33 0 55.5-20.5t22.5-51.5-22.5-51.5-55.5-20.5q-32 0-54 21.5t-22 50.5z"/><glyph glyph-name="six.sc" horiz-adv-x="516" d="M235 542h144l-140-198 2-2q24 9 50 9 74 0 123.5-46t49.5-125q0-85-60-139.5t-147-54.5q-88 0-146.5 54t-58.5 137 65 182zm-62-367q0-39 25-63t61-24 61 24.5 25 64.5q0 39-25 62.5t-61 23.5-61-24-25-64z"/><glyph glyph-name="egrave.sc" horiz-adv-x="508" d="M76 0v542h374v-101h-252v-114h239v-96h-239v-127h265v-104h-387zm190 738l99-144h-94l-141 144h136z"/><glyph glyph-name="c.sc" horiz-adv-x="565" d="M546 466l-93-77q-41 58-115 58-72 0-116-48t-44-126q0-76 44-125.5t115-49.5q77 0 123 64l96-73q-76-103-223-103-131 0-210 78.5t-79 208.5q0 127 84.5 205t212.5 78q134 0 205-90z"/><glyph glyph-name="circumflex.sc" d="M312 594h-114l-69 90-69-90h-112l115 144h135z"/><glyph glyph-name="t.sc" horiz-adv-x="446" d="M162 0v439h-158v103h438v-103h-158v-439h-122z"/><glyph glyph-name="dieresis.cap" d="M-40 844q0 28 20.5 49t50.5 21q31 0 52-20t21-50-21-50-52-20q-30 0-50.5 21t-20.5 49zm196 0q0 28 20.5 49t50.5 21q31 0 52-20t21-50-21-50-52-20q-30 0-50.5 21t-20.5 49z"/><glyph glyph-name="sacute.sc" horiz-adv-x="492" d="M448 474l-83-79q-18 25-48.5 42t-64.5 17q-35 0-58.5-13.5t-23.5-42.5q0-28 24.5-42t86.5-29q33-8 58.5-18.5t52-28.5 41-47 14.5-66q0-92-61-136.5t-153-44.5q-61 0-118 23t-93 65l85 86q21-30 56-48.5t75-18.5q34 0 58 14.5t24 46.5q0 31-25.5 46t-91.5 31q-70 17-111 51t-41 102q0 84 60 128t144 44q58 0 110.5-21t82.5-61zm-279 120l99 144h136l-141-144h-94z"/><glyph glyph-name="caron.sc" d="M-51 738h114l69-90 69 90h110l-115-144h-133z"/><glyph glyph-name="d.sc" horiz-adv-x="623" d="M76 0v542h205q60 0 111-14.5t94.5-44.5 68-84 24.5-127q0-132-88.5-202t-213.5-70h-201zm122 101h64q38 0 69 8t58 26.5 42.5 53.5 15.5 83q0 51-15 86t-42 53-58 25-70 7h-64v-342z"/><glyph glyph-name="cdotaccent.sc" horiz-adv-x="565" d="M546 466l-93-77q-41 58-115 58-72 0-116-48t-44-126q0-76 44-125.5t115-49.5q77 0 123 64l96-73q-76-103-223-103-131 0-210 78.5t-79 208.5q0 127 84.5 205t212.5 78q134 0 205-90zm-286 207q0 29 22 50.5t54 21.5q33 0 55.5-20.5t22.5-51.5-22.5-51.5-55.5-20.5q-32 0-54 21.5t-22 50.5z"/><glyph glyph-name="f.sc" horiz-adv-x="484" d="M76 0v542h365v-103h-243v-128h229v-98h-229v-213h-122z"/><glyph glyph-name="commaaccent.alt" d="M217 759l-65-195h-106l80 195h91z"/><glyph glyph-name="tcaron.sc" horiz-adv-x="446" d="M162 0v439h-158v103h438v-103h-158v-439h-122zm-119 738h114l69-90 69 90h110l-115-144h-133z"/><glyph glyph-name="gdotaccent.sc" horiz-adv-x="615" d="M560 316v-284q-94-46-215-46-134 0-217.5 80t-83.5 207q0 128 84 205.5t213 77.5q138 0 216-72l-85-93q-45 56-130 56-76 0-120-48t-44-126 47.5-127.5 124.5-49.5q50 0 89 15v111h-110v94h231zm-292 357q0 29 22 50.5t54 21.5q33 0 55.5-20.5t22.5-51.5-22.5-51.5-55.5-20.5q-32 0-54 21.5t-22 50.5z"/><glyph glyph-name="gcommaaccent.sc" horiz-adv-x="615" d="M560 316v-284q-94-46-215-46-134 0-217.5 80t-83.5 207q0 128 84 205.5t213 77.5q138 0 216-72l-85-93q-45 56-130 56-76 0-120-48t-44-126 47.5-127.5 124.5-49.5q50 0 89 15v111h-110v94h231zm-326-556l65 195h106l-80-195h-91z"/><glyph glyph-name="gcircumflex.sc" horiz-adv-x="615" d="M560 316v-284q-94-46-215-46-134 0-217.5 80t-83.5 207q0 128 84 205.5t213 77.5q138 0 216-72l-85-93q-45 56-130 56-76 0-120-48t-44-126 47.5-127.5 124.5-49.5q50 0 89 15v111h-110v94h231zm-31 278h-114l-69 90-69-90h-112l115 144h135z"/></font>
</defs>
</svg>
